<svg width="20" height="20" viewBox="0 0 20 20" fill="none" xmlns="http://www.w3.org/2000/svg">
<path d="M6 16.5V3.5M10 16.5V3.5M14 16.5V3.5M3 9.27778C3 6.5541 3 5.19228 3.8201 4.34613C4.64021 3.5 5.96013 3.5 8.6 3.5H11.4C14.0398 3.5 15.3598 3.5 16.1799 4.34613C17 5.19228 17 6.5541 17 9.27778V10.7222C17 13.4459 17 14.8078 16.1799 15.6538C15.3598 16.5 14.0398 16.5 11.4 16.5H8.6C5.96013 16.5 4.64021 16.5 3.8201 15.6538C3 14.8078 3 13.4459 3 10.7222V9.27778Z" stroke="currentColor" stroke-linecap="round"/>
</svg>
