<svg width="20" height="20" viewBox="0 0 20 20" fill="none" xmlns="http://www.w3.org/2000/svg">
<path fill-rule="evenodd" clip-rule="evenodd" d="M14.9497 14.9497C17.6834 12.2161 17.6834 7.78392 14.9497 5.05025C12.2161 2.31658 7.78392 2.31658 5.05025 5.05025C2.31658 7.78392 2.31658 12.2161 5.05025 14.9497C7.78392 17.6834 12.2161 17.6834 14.9497 14.9497Z" fill="#00B5FF"/>
<path d="M13.5 10C13.5 10.2929 13.2626 10.5303 12.9697 10.5303H10.5303L10.5303 12.9697C10.5303 13.2626 10.2929 13.5 10 13.5C9.70712 13.5 9.4697 13.2626 9.4697 12.9697V10.5303L7.0303 10.5303C6.73742 10.5303 6.5 10.2929 6.5 10C6.5 9.70712 6.73742 9.4697 7.0303 9.4697H9.4697V7.0303C9.4697 6.73743 9.70712 6.5 10 6.5C10.2929 6.5 10.5303 6.73742 10.5303 7.0303V9.4697H12.9697C13.2626 9.4697 13.5 9.70712 13.5 10Z" fill="white"/>
</svg>
