<svg width="20" height="20" viewBox="0 0 20 20" fill="none" xmlns="http://www.w3.org/2000/svg">
<path d="M6.6335 14.8353C6.92686 14.032 7.45466 13.3393 8.14602 12.8502C8.83737 12.3611 9.65917 12.0991 10.5011 12.0993C11.343 12.0995 12.1646 12.362 12.8557 12.8515C13.5468 13.3409 14.0742 14.0339 14.3672 14.8374M16 10.699C16 14.1984 13.5938 15.9481 10.7338 16.963C10.584 17.0146 10.4213 17.0122 10.2731 16.956C7.40625 15.9481 5 14.1984 5 10.699V5.79985C5 5.61423 5.07243 5.43621 5.20136 5.30495C5.3303 5.1737 5.50516 5.09996 5.6875 5.09996C7.0625 5.09996 8.78125 4.2601 9.9775 3.19628C10.1232 3.0696 10.3084 3 10.5 3C10.6916 3 10.8769 3.0696 11.0225 3.19628C12.2256 4.2671 13.9375 5.09996 15.3125 5.09996C15.4948 5.09996 15.6697 5.1737 15.7986 5.30495C15.9276 5.43621 16 5.61423 16 5.79985V10.699ZM13.25 9.29926C13.25 10.8454 12.0188 12.0988 10.5 12.0988C8.98122 12.0988 7.75 10.8454 7.75 9.29926C7.75 7.75312 8.98122 6.49973 10.5 6.49973C12.0188 6.49973 13.25 7.75312 13.25 9.29926Z" stroke="currentColor" stroke-linecap="round" stroke-linejoin="round"/>
</svg>
