<svg width="20" height="20" viewBox="0 0 20 20" fill="none" xmlns="http://www.w3.org/2000/svg">
<path d="M4 8.89169C4 6.65335 4 5.5342 4.27265 5.15769C4.5453 4.78118 5.63101 4.42097 7.80244 3.70055L8.21613 3.5633C9.34806 3.18777 9.91399 3 10.5 3C11.086 3 11.6519 3.18777 12.7839 3.5633L13.1976 3.70055C15.369 4.42097 16.4547 4.78118 16.7274 5.15769C17 5.5342 17 6.65335 17 8.89169V9.99398C17 13.9406 13.9385 15.8559 12.0177 16.6691C11.4967 16.8897 11.2362 17 10.5 17C9.76384 17 9.50333 16.8897 8.98229 16.6691C7.06147 15.8559 4 13.9406 4 9.99398V8.89169Z" stroke="currentColor"/>
<path d="M9.05556 7.9C9.05556 8.2713 9.20774 8.6274 9.47862 8.88995C9.74951 9.1525 10.1169 9.3 10.5 9.3C10.8831 9.3 11.2505 9.1525 11.5214 8.88995C11.7923 8.6274 11.9444 8.2713 11.9444 7.9C11.9444 7.5287 11.7923 7.1726 11.5214 6.91005C11.2505 6.6475 10.8831 6.5 10.5 6.5C10.1169 6.5 9.74951 6.6475 9.47862 6.91005C9.20774 7.1726 9.05556 7.5287 9.05556 7.9Z" stroke="currentColor"/>
<path d="M13.3889 12.1C13.3889 12.8732 13.3889 13.5 10.5 13.5C7.61111 13.5 7.61111 12.8732 7.61111 12.1C7.61111 11.3268 8.90451 10.7 10.5 10.7C12.0955 10.7 13.3889 11.3268 13.3889 12.1Z" stroke="currentColor"/>
</svg>
