<svg width="20" height="20" viewBox="0 0 20 20" fill="none" xmlns="http://www.w3.org/2000/svg">
<path d="M17 10C17 13.866 13.866 17 10 17C8.88021 17 7.82186 16.7371 6.88327 16.2696C6.63385 16.1454 6.34875 16.104 6.07957 16.176L4.52135 16.593C3.84491 16.7739 3.22607 16.1551 3.40706 15.4787L3.82398 13.9204C3.89601 13.6513 3.85466 13.3662 3.73042 13.1168C3.26293 12.1781 3 11.1198 3 10C3 6.134 6.134 3 10 3" stroke="currentColor" stroke-linecap="round"/>
<path d="M14.1543 3.23158C14.2823 2.92275 14.7197 2.92283 14.8477 3.2317L15.0146 3.63473C15.2685 4.24768 15.7554 4.73469 16.3682 4.98871L16.7684 5.15459C17.0773 5.28262 17.0772 5.72025 16.7683 5.84817L16.3653 6.01502C15.7519 6.26905 15.2645 6.75653 15.0106 7.37011L14.8459 7.76819C14.718 8.07733 14.2801 8.07725 14.1523 7.76807L13.9864 7.36685C13.7325 6.75277 13.2449 6.2649 12.631 6.0108L12.2318 5.84558C11.9228 5.71769 11.9227 5.27995 12.2317 5.15195L12.6347 4.98497C13.2474 4.73112 13.7343 4.24435 13.9884 3.63163L14.1543 3.23158Z" fill="currentColor"/>
</svg>
