<svg width="20" height="20" viewBox="0 0 20 20" fill="none" xmlns="http://www.w3.org/2000/svg">
<path d="M11.4 13.4998C11.4 14.8529 12.4969 15.9498 13.85 15.9498C15.2031 15.9498 16.3 14.8529 16.3 13.4998C16.3 12.1467 15.2031 11.0498 13.85 11.0498C12.4969 11.0498 11.4 12.1467 11.4 13.4998ZM11.4 13.4998L10.9391 13.2694C10.348 12.9738 9.65203 12.9738 9.06088 13.2694L8.6 13.4998M3 8.9498H17M4.4 8.9498L4.82966 7.23116C5.21163 5.70328 5.40262 4.93934 5.97226 4.49457C6.54192 4.0498 7.32936 4.0498 8.90429 4.0498H11.0957C12.6706 4.0498 13.4581 4.0498 14.0277 4.49457C14.5974 4.93934 14.7884 5.70328 15.1703 7.23116L15.6 8.9498M8.6 13.4998C8.6 14.8529 7.5031 15.9498 6.15 15.9498C4.7969 15.9498 3.7 14.8529 3.7 13.4998C3.7 12.1467 4.7969 11.0498 6.15 11.0498C7.5031 11.0498 8.6 12.1467 8.6 13.4998Z" stroke="currentColor" stroke-linecap="round"/>
</svg>
