<svg width="20" height="20" viewBox="0 0 20 20" fill="none" xmlns="http://www.w3.org/2000/svg">
<path d="M12.8 7.2V10.7C12.8 11.257 13.0213 11.7911 13.4151 12.1849C13.8089 12.5788 14.343 12.8 14.9 12.8C15.457 12.8 15.9911 12.5788 16.3849 12.1849C16.7788 11.7911 17 11.257 17 10.7V10C17 8.42312 16.4676 6.89242 15.489 5.65592C14.5104 4.41942 13.143 3.54956 11.6083 3.18726C10.0736 2.82497 8.4615 2.99147 7.03324 3.65979C5.60499 4.32811 4.44422 5.4591 3.73902 6.86951C3.03381 8.27992 2.82548 9.88712 3.14778 11.4307C3.47008 12.9743 4.30412 14.3639 5.51477 15.3743C6.72543 16.3846 8.24178 16.9567 9.81813 16.9976C11.3945 17.0386 12.9385 16.5461 14.2 15.6M7.2 10C7.2 10.7426 7.495 11.4548 8.0201 11.9799C8.5452 12.505 9.25739 12.8 10 12.8C10.7426 12.8 11.4548 12.505 11.9799 11.9799C12.505 11.4548 12.8 10.7426 12.8 10C12.8 9.25739 12.505 8.5452 11.9799 8.0201C11.4548 7.495 10.7426 7.2 10 7.2C9.25739 7.2 8.5452 7.495 8.0201 8.0201C7.495 8.5452 7.2 9.25739 7.2 10Z" stroke="currentColor" stroke-linecap="round" stroke-linejoin="round"/>
</svg>
