<svg width="20" height="20" viewBox="0 0 20 20" fill="none" xmlns="http://www.w3.org/2000/svg">
<path d="M9.9999 14.0158V5.0625M10 14C10 15.6568 8.65682 17 7 17C5.34318 17 4 15.6568 4 14C4 12.3432 5.34318 11 7 11C8.65682 11 10 12.3432 10 14ZM13.0874 8.09019L11.1124 7.10778C10.8387 6.9717 10.7018 6.90363 10.5888 6.81762C10.2961 6.59495 10.0959 6.27284 10.0267 5.91273C9.9999 5.77376 9.9999 5.62154 9.9999 5.31717C9.9999 4.59259 9.9999 4.23031 10.0896 3.98405C10.3266 3.33314 10.9825 2.9299 11.6737 3.01012C11.9353 3.04046 12.261 3.20245 12.9124 3.52649L14.8875 4.5089C15.1612 4.64505 15.2981 4.71312 15.4111 4.79906C15.7038 5.02173 15.904 5.34385 15.9732 5.70395C16 5.84299 16 5.99514 16 6.29958C16 7.02409 16 7.38638 15.9103 7.63264C15.6733 8.28355 15.0174 8.68678 14.3262 8.60663C14.0646 8.57622 13.7389 8.41423 13.0874 8.09019Z" stroke="currentColor"/>
</svg>
