<svg width="20" height="20" viewBox="0 0 20 20" fill="none" xmlns="http://www.w3.org/2000/svg">
<path d="M8.7 15.135V4.865C8.7 3.89 8.3085 3.5 7.33579 3.5H4.86425C3.89154 3.5 3.5 3.89 3.5 4.865V15.135C3.5 16.11 3.89154 16.5 4.86425 16.5H7.33579C8.3085 16.5 8.7 16.11 8.7 15.135Z" stroke="currentColor" stroke-linecap="round" stroke-linejoin="round"/>
<path d="M16.5 10.7667V4.9C16.5 3.9 16.1086 3.5 15.1358 3.5H12.6643C11.6916 3.5 11.3 3.9 11.3 4.9V10.7667C11.3 11.7667 11.6916 12.1667 12.6643 12.1667H15.1358C16.1086 12.1667 16.5 11.7667 16.5 10.7667Z" stroke="currentColor" stroke-linecap="round" stroke-linejoin="round"/>
</svg>
