<svg width="20" height="20" viewBox="0 0 20 20" fill="none" xmlns="http://www.w3.org/2000/svg">
<path d="M14.9004 10.8997C14.6242 10.8997 14.4004 11.1235 14.4004 11.3997C14.4004 11.6758 14.6242 11.8997 14.9004 11.8997V10.8997ZM17.0004 11.8997C17.2766 11.8997 17.5004 11.6758 17.5004 11.3997C17.5004 11.1235 17.2766 10.8997 17.0004 10.8997V11.8997ZM5.10005 11.8997C5.37619 11.8997 5.60005 11.6758 5.60005 11.3997C5.60005 11.1235 5.37619 10.8997 5.10005 10.8997V11.8997ZM3 10.8997C2.72386 10.8997 2.5 11.1235 2.5 11.3997C2.5 11.6758 2.72386 11.8997 3 11.8997V10.8997ZM11.493 3.62125C11.2562 3.76332 11.1794 4.07045 11.3215 4.30724C11.4635 4.54403 11.7707 4.62082 12.0075 4.47875L11.493 3.62125ZM13.7575 3.42875C13.9943 3.28668 14.0711 2.97955 13.929 2.74276C13.7869 2.50597 13.4798 2.42918 13.243 2.57125L13.7575 3.42875ZM7.99289 4.47875C8.22968 4.62082 8.53681 4.54403 8.67888 4.30724C8.82095 4.07045 8.74416 3.76332 8.50737 3.62125L7.99289 4.47875ZM6.75733 2.57125C6.52054 2.42918 6.21341 2.50597 6.07134 2.74276C5.92927 2.97955 6.00605 3.28668 6.24284 3.42875L6.75733 2.57125ZM15.7651 16.064C16.0215 16.1666 16.3125 16.0419 16.4151 15.7855C16.5176 15.5291 16.3929 15.2381 16.1365 15.1356L15.7651 16.064ZM14.7365 14.5756C14.4801 14.473 14.1891 14.5977 14.0865 14.8541C13.984 15.1105 14.1087 15.4015 14.3651 15.504L14.7365 14.5756ZM16.1365 7.66407C16.3929 7.56151 16.5176 7.27053 16.4151 7.01414C16.3125 6.75775 16.0215 6.63303 15.7651 6.73559L16.1365 7.66407ZM14.3651 7.29559C14.1087 7.39814 13.984 7.68913 14.0865 7.94552C14.1891 8.20191 14.4801 8.32662 14.7365 8.22407L14.3651 7.29559ZM3.86411 15.1356C3.60772 15.2381 3.48301 15.5291 3.58556 15.7855C3.68812 16.0419 3.9791 16.1666 4.2355 16.064L3.86411 15.1356ZM5.63553 15.504C5.89192 15.4015 6.01663 15.1105 5.91408 14.8541C5.81152 14.5977 5.52054 14.473 5.26415 14.5756L5.63553 15.504ZM4.2355 6.73559C3.9791 6.63303 3.68812 6.75775 3.58556 7.01414C3.48301 7.27053 3.60772 7.56151 3.86411 7.66407L4.2355 6.73559ZM5.26415 8.22407C5.52054 8.32662 5.81152 8.20191 5.91408 7.94552C6.01663 7.68913 5.89192 7.39814 5.63553 7.29559L5.26415 8.22407ZM10.5 12.6249C10.5 12.3488 10.2761 12.125 9.99992 12.125C9.72378 12.125 9.49996 12.3489 9.5 12.6251L10.5 12.6249ZM15.4008 12.0998V9.95608H14.4008V12.0998H15.4008ZM15.4008 9.95608C15.4008 8.15769 13.9429 6.69983 12.1445 6.69983V7.69983C13.3906 7.69983 14.4008 8.71 14.4008 9.95608H15.4008ZM12.1445 6.69983H7.8569V7.69983H12.1445V6.69983ZM7.8569 6.69983C6.0585 6.69983 4.60059 8.15769 4.60059 9.95608H5.60059C5.60059 8.71 6.61076 7.69983 7.8569 7.69983V6.69983ZM4.60059 9.95608V12.0998H5.60059V9.95608H4.60059ZM4.60059 12.0998C4.60059 15.0822 7.01832 17.4998 10.0007 17.4998V16.4998C7.57058 16.4998 5.60059 14.5299 5.60059 12.0998H4.60059ZM10.0007 17.4998C12.9831 17.4998 15.4008 15.0822 15.4008 12.0998H14.4008C14.4008 14.5299 12.4308 16.4998 10.0007 16.4998V17.4998ZM13.6507 7.54983V6.84983H12.6507V7.54983H13.6507ZM13.6507 6.84983C13.6507 4.83398 12.0165 3.19983 10.0007 3.19983V4.19983C11.4643 4.19983 12.6507 5.38629 12.6507 6.84983H13.6507ZM10.0007 3.19983C7.98479 3.19983 6.35059 4.83398 6.35059 6.84983H7.35059C7.35059 5.38629 8.53706 4.19983 10.0007 4.19983V3.19983ZM6.35059 6.84983V7.54983H7.35059V6.84983H6.35059ZM14.9004 11.8997H17.0004V10.8997H14.9004V11.8997ZM5.10005 10.8997H3V11.8997H5.10005V10.8997ZM12.0075 4.47875L13.7575 3.42875L13.243 2.57125L11.493 3.62125L12.0075 4.47875ZM8.50737 3.62125L6.75733 2.57125L6.24284 3.42875L7.99289 4.47875L8.50737 3.62125ZM16.1365 15.1356L14.7365 14.5756L14.3651 15.504L15.7651 16.064L16.1365 15.1356ZM15.7651 6.73559L14.3651 7.29559L14.7365 8.22407L16.1365 7.66407L15.7651 6.73559ZM4.2355 16.064L5.63553 15.504L5.26415 14.5756L3.86411 15.1356L4.2355 16.064ZM3.86411 7.66407L5.26415 8.22407L5.63553 7.29559L4.2355 6.73559L3.86411 7.66407ZM10.5007 16.9997L10.5 12.6249L9.5 12.6251L9.50071 16.9999L10.5007 16.9997Z" fill="currentColor"/>
</svg>
