<svg width="20" height="20" viewBox="0 0 20 20" fill="none" xmlns="http://www.w3.org/2000/svg">
<path d="M7 4.2V3M13 4.2V3M3 8.5H17M3 9.83333C3 7.31917 3 6.0621 3.8201 5.28105C4.64021 4.5 5.96013 4.5 8.6 4.5H11.4C14.0398 4.5 15.3598 4.5 16.1799 5.28105C17 6.0621 17 7.31917 17 9.83333V11.1667C17 13.6808 17 14.9379 16.1799 15.7189C15.3598 16.5 14.0398 16.5 11.4 16.5H8.6C5.96013 16.5 4.64021 16.5 3.8201 15.7189C3 14.9379 3 13.6808 3 11.1667V9.83333Z" stroke="currentColor" stroke-linecap="round"/>
</svg>
