<svg width="20" height="20" viewBox="0 0 20 20" fill="none" xmlns="http://www.w3.org/2000/svg">
<path d="M6.57141 16V16.5C6.84755 16.5 7.07141 16.2761 7.07141 16H6.57141ZM5.99994 15.4093L5.64056 15.7569L5.64058 15.7569L5.99994 15.4093ZM5.99994 5.95753L6.35931 6.30516L6.35932 6.30516L5.99994 5.95753ZM14.7834 6.30517C14.9754 6.50364 15.292 6.5089 15.4905 6.31691C15.6889 6.12492 15.6942 5.80838 15.5022 5.6099L14.7834 6.30517ZM7.07141 12.4555C7.07141 12.1794 6.84755 11.9555 6.57141 11.9555C6.29527 11.9555 6.07141 12.1794 6.07141 12.4555H7.07141ZM3.14282 15.5C2.86668 15.5 2.64282 15.7239 2.64282 16C2.64282 16.2761 2.86668 16.5 3.14282 16.5V15.5ZM9.55275 15.7764C9.42926 16.0234 9.52937 16.3237 9.77636 16.4472C10.0233 16.5707 10.3237 16.4706 10.4472 16.2236L9.55275 15.7764ZM13.4285 9.14286L13.8757 8.91925C13.7911 8.74986 13.6179 8.64286 13.4285 8.64286C13.2392 8.64286 13.066 8.74986 12.9813 8.91925L13.4285 9.14286ZM16.4099 16.2236C16.5334 16.4706 16.8337 16.5707 17.0807 16.4472C17.3277 16.3237 17.4278 16.0234 17.3043 15.7764L16.4099 16.2236ZM6.93077 15.6523L6.35929 15.0616L5.64058 15.7569L6.21206 16.3477L6.93077 15.6523ZM6.35932 15.0617C4.02212 12.6454 4.02213 8.72131 6.35931 6.30516L5.64056 5.6099C2.92837 8.41371 2.92838 12.953 5.64056 15.7569L6.35932 15.0617ZM6.35932 6.30516C8.68748 3.89828 12.4552 3.89828 14.7834 6.30517L15.5022 5.6099C12.7809 2.7967 8.36176 2.7967 5.64056 5.6099L6.35932 6.30516ZM7.07141 16V12.4555H6.07141V16H7.07141ZM6.57141 15.5H3.14282V16.5H6.57141V15.5ZM10.4472 16.2236L13.8757 9.36646L12.9813 8.91925L9.55275 15.7764L10.4472 16.2236ZM12.9813 9.36646L16.4099 16.2236L17.3043 15.7764L13.8757 8.91925L12.9813 9.36646ZM11.2857 14.25H15.5714V13.25H11.2857V14.25Z" fill="currentColor"/>
</svg>
