<svg width="20" height="20" viewBox="0 0 20 20" fill="none" xmlns="http://www.w3.org/2000/svg">
<path d="M7 9H13M7 11.5H10M10 17C13.866 17 17 13.866 17 10C17 6.13401 13.866 3 10 3C6.13401 3 3 6.13401 3 10C3 11.1198 3.26293 12.1781 3.73042 13.1168C3.85466 13.3662 3.89601 13.6513 3.82398 13.9204L3.40706 15.4787C3.22607 16.1551 3.84491 16.7739 4.52135 16.593L6.07957 16.176C6.34875 16.104 6.63385 16.1454 6.88327 16.2695C7.82186 16.7371 8.88021 17 10 17Z" stroke="#21232A" stroke-linecap="round"/>
</svg>
