<svg width="20" height="20" viewBox="0 0 20 20" fill="none" xmlns="http://www.w3.org/2000/svg">
<path fill-rule="evenodd" clip-rule="evenodd" d="M10 17C13.866 17 17 13.866 17 10C17 6.13401 13.866 3 10 3C6.13401 3 3 6.13401 3 10C3 13.866 6.13401 17 10 17ZM12.3524 12.3524C12.1555 12.5492 11.8364 12.5492 11.6395 12.3524L10 10.7128L8.36047 12.3524C8.16363 12.5492 7.84448 12.5492 7.64763 12.3524C7.45079 12.1555 7.45079 11.8364 7.64763 11.6395L9.28716 10L7.64763 8.36047C7.45079 8.16363 7.45079 7.84448 7.64763 7.64763C7.84448 7.45079 8.16363 7.45079 8.36047 7.64763L10 9.28716L11.6395 7.64763C11.8364 7.45079 12.1555 7.45079 12.3524 7.64763C12.5492 7.84448 12.5492 8.16363 12.3524 8.36047L10.7128 10L12.3524 11.6395C12.5492 11.8364 12.5492 12.1555 12.3524 12.3524Z" fill="currentColor"/>
</svg>
