<svg width="20" height="20" viewBox="0 0 20 20" fill="none" xmlns="http://www.w3.org/2000/svg">
<path d="M7.75 6.5H2.75M17.25 6.5H15.75M12.25 13.5H17.25M2.75 13.5H4.25M11.75 4.5C10.6454 4.5 9.75 5.39543 9.75 6.5C9.75 7.60457 10.6454 8.5 11.75 8.5C12.8546 8.5 13.75 7.60457 13.75 6.5C13.75 5.39543 12.8546 4.5 11.75 4.5ZM8.25 15.5C9.3546 15.5 10.25 14.6046 10.25 13.5C10.25 12.3954 9.3546 11.5 8.25 11.5C7.1454 11.5 6.25 12.3954 6.25 13.5C6.25 14.6046 7.1454 15.5 8.25 15.5Z" stroke="#21232A" stroke-linecap="round"/>
</svg>
