<svg width="20" height="20" viewBox="0 0 20 20" fill="none" xmlns="http://www.w3.org/2000/svg">
<path d="M12.5 4.83333C12.6999 6.191 13.7411 7.22893 15.0333 7.36667M13.1329 4.19355L9.02678 8.38156C8.87174 8.5406 8.7217 8.85386 8.69169 9.07073L8.50664 10.6322C8.44162 11.1961 8.86173 11.5816 9.44189 11.4852L11.0523 11.2202C11.2774 11.1816 11.5925 11.0226 11.7475 10.8587L15.8536 6.67069C16.5638 5.94779 16.8839 5.12368 15.7786 4.11644C14.6783 3.11883 13.8431 3.47064 13.1329 4.19355Z" stroke="currentColor" stroke-miterlimit="10" stroke-linecap="round" stroke-linejoin="round"/>
<path d="M3 5H9" stroke="currentColor" stroke-linecap="round"/>
<path d="M3 8.5H6" stroke="currentColor" stroke-linecap="round"/>
<path d="M3 12H6" stroke="currentColor" stroke-linecap="round"/>
<path d="M3 15.5H11" stroke="currentColor" stroke-linecap="round"/>
<path d="M14.1549 11.2316C14.283 10.9228 14.7206 10.9228 14.8486 11.2317L15.0156 11.6347C15.2695 12.2477 15.7566 12.7347 16.3696 12.9887L16.7699 13.1546C17.0789 13.2826 17.0788 13.7202 16.7698 13.8482L16.3667 14.015C15.7531 14.2691 15.2656 14.7565 15.0116 15.3701L14.8468 15.7682C14.7188 16.0773 14.2808 16.0773 14.153 15.7681L13.9871 15.3669C13.7331 14.7528 13.2453 14.2649 12.6312 14.0108L12.2319 13.8456C11.9228 13.7177 11.9227 13.28 12.2317 13.152L12.6349 12.985C13.2478 12.7311 13.7349 12.2444 13.989 11.6316L14.1549 11.2316Z" fill="currentColor"/>
</svg>
