<svg width="20" height="20" viewBox="0 0 20 20" fill="none" xmlns="http://www.w3.org/2000/svg">
<path d="M7.2 5.8H6.7H7.2ZM10 8.6V9.1V8.6ZM14.3125 10V9.5V10ZM13.625 12.25C13.3489 12.25 13.125 12.4739 13.125 12.75C13.125 13.0261 13.3489 13.25 13.625 13.25V12.25ZM15.033 13.25C15.3091 13.25 15.533 13.0261 15.533 12.75C15.533 12.4739 15.3091 12.25 15.033 12.25V13.25ZM6.7 5.8C6.7 6.67521 7.04768 7.51458 7.66655 8.13345L8.37365 7.42635C7.94232 6.99501 7.7 6.41 7.7 5.8H6.7ZM7.66655 8.13345C8.28542 8.75232 9.12479 9.1 10 9.1V8.1C9.39 8.1 8.80499 7.85768 8.37365 7.42635L7.66655 8.13345ZM10 9.1C10.8752 9.1 11.7146 8.75232 12.3335 8.13345L11.6263 7.42635C11.195 7.85768 10.61 8.1 10 8.1V9.1ZM12.3335 8.13345C12.9523 7.51458 13.3 6.67521 13.3 5.8H12.3C12.3 6.41 12.0577 6.99501 11.6263 7.42635L12.3335 8.13345ZM13.3 5.8C13.3 4.92479 12.9523 4.08542 12.3335 3.46655L11.6263 4.17365C12.0577 4.60499 12.3 5.19 12.3 5.8H13.3ZM12.3335 3.46655C11.7146 2.84768 10.8752 2.5 10 2.5V3.5C10.61 3.5 11.195 3.74232 11.6263 4.17365L12.3335 3.46655ZM10 2.5C9.12479 2.5 8.28542 2.84768 7.66655 3.46655L8.37365 4.17365C8.80499 3.74232 9.39 3.5 10 3.5V2.5ZM7.66655 3.46655C7.04768 4.08542 6.7 4.92479 6.7 5.8H7.7C7.7 5.19 7.94232 4.60499 8.37365 4.17365L7.66655 3.46655ZM10 16.5C8.51519 16.5 7.42286 16.4166 6.61979 16.2721C5.8129 16.127 5.33288 15.926 5.04318 15.7163C4.52566 15.3417 4.5 14.8632 4.5 14H3.5C3.5 14.7936 3.47434 15.8152 4.45682 16.5264C4.91712 16.8595 5.5621 17.0979 6.44271 17.2563C7.32714 17.4155 8.48481 17.5 10 17.5V16.5ZM4.5 14C4.5 13.463 4.94833 12.8422 5.98097 12.3259C6.98369 11.8245 8.40394 11.5 10 11.5V10.5C8.28235 10.5 6.7026 10.847 5.53375 11.4315C4.39481 12.0009 3.5 12.8802 3.5 14H4.5ZM15.4775 14.7209C15.4494 14.9974 15.3888 15.2115 15.2737 15.3906C15.161 15.5658 14.9704 15.7475 14.6145 15.914C13.8737 16.2605 12.5095 16.5 10 16.5V17.5C12.5246 17.5 14.0827 17.2668 15.0382 16.8198C15.5305 16.5895 15.8815 16.2943 16.1148 15.9314C16.3457 15.5723 16.4353 15.1871 16.4724 14.8221L15.4775 14.7209ZM10 11.5C10.673 11.5 11.317 11.5578 11.913 11.6631L12.087 10.6783C11.4319 10.5626 10.7296 10.5 10 10.5V11.5ZM11.0625 12.75C11.0625 13.612 11.4049 14.4386 12.0144 15.0481L12.7215 14.341C12.2996 13.919 12.0625 13.3467 12.0625 12.75H11.0625ZM12.0144 15.0481C12.6239 15.6576 13.4505 16 14.3125 16V15C13.7158 15 13.1435 14.7629 12.7215 14.341L12.0144 15.0481ZM14.3125 16C15.1745 16 16.0011 15.6576 16.6106 15.0481L15.9035 14.341C15.4815 14.7629 14.9092 15 14.3125 15V16ZM16.6106 15.0481C17.2201 14.4386 17.5625 13.612 17.5625 12.75H16.5625C16.5625 13.3467 16.3254 13.919 15.9035 14.341L16.6106 15.0481ZM17.5625 12.75C17.5625 11.888 17.2201 11.0614 16.6106 10.4519L15.9035 11.159C16.3254 11.581 16.5625 12.1533 16.5625 12.75H17.5625ZM16.6106 10.4519C16.0011 9.84241 15.1745 9.5 14.3125 9.5V10.5C14.9092 10.5 15.4815 10.7371 15.9035 11.159L16.6106 10.4519ZM14.3125 9.5C13.4505 9.5 12.6239 9.84241 12.0144 10.4519L12.7215 11.159C13.1435 10.7371 13.7158 10.5 14.3125 10.5V9.5ZM12.0144 10.4519C11.4049 11.0614 11.0625 11.888 11.0625 12.75H12.0625C12.0625 12.1533 12.2996 11.581 12.7215 11.159L12.0144 10.4519ZM13.625 13.25H15.033V12.25H13.625V13.25Z" fill="currentColor"/>
</svg>
