<svg width="20" height="20" viewBox="0 0 20 20" fill="none" xmlns="http://www.w3.org/2000/svg">
<path d="M16.5 5.7866C14.095 5.55559 11.6756 5.43658 9.26333 5.43658C7.83333 5.43658 6.40333 5.50659 4.97333 5.64659L3.5 5.7866M7.47257 5.07908L7.63146 4.16205C7.74702 3.49702 7.83369 3 9.05424 3H10.9465C12.167 3 12.2609 3.52502 12.3692 4.16905L12.5281 5.07908M14.9462 7.99756L14.4768 15.0468C14.3973 16.1459 14.3323 16.9999 12.3173 16.9999H7.68065C5.66565 16.9999 5.60065 16.1459 5.5212 15.0468L5.05176 7.99756M8.79395 13.1499H11.1989M8.19515 10.3506H11.8063" stroke="currentColor" stroke-linecap="round" stroke-linejoin="round"/>
</svg>
