<svg width="20" height="20" viewBox="0 0 20 20" fill="none" xmlns="http://www.w3.org/2000/svg">
<path d="M7.5 6.48295C6.67157 6.48295 6 5.8152 6 4.99148C6 4.16776 6.67157 3.5 7.5 3.5C8.32843 3.5 9 4.16776 9 4.99148C9 5.8152 8.32843 6.48295 7.5 6.48295Z" fill="currentColor"/>
<path d="M7.5 11.4705C6.67157 11.4705 6 10.8027 6 9.97902C6 9.1553 6.67157 8.48754 7.5 8.48754C8.32843 8.48754 9 9.1553 9 9.97902C9 10.8027 8.32843 11.4705 7.5 11.4705Z" fill="currentColor"/>
<path d="M7.5 16.5C6.67157 16.5 6 15.8322 6 15.0085C6 14.1848 6.67157 13.517 7.5 13.517C8.32843 13.517 9 14.1848 9 15.0085C9 15.8322 8.32843 16.5 7.5 16.5Z" fill="currentColor"/>
<path d="M12.5 6.48295C11.6716 6.48295 11 5.8152 11 4.99148C11 4.16776 11.6716 3.5 12.5 3.5C13.3284 3.5 14 4.16776 14 4.99148C14 5.8152 13.3284 6.48295 12.5 6.48295Z" fill="currentColor"/>
<path d="M12.5 11.4705C11.6716 11.4705 11 10.8027 11 9.97902C11 9.1553 11.6716 8.48754 12.5 8.48754C13.3284 8.48754 14 9.1553 14 9.97902C14 10.8027 13.3284 11.4705 12.5 11.4705Z" fill="currentColor"/>
<path d="M12.5 16.5C11.6716 16.5 11 15.8322 11 15.0085C11 14.1848 11.6716 13.517 12.5 13.517C13.3284 13.517 14 14.1848 14 15.0085C14 15.8322 13.3284 16.5 12.5 16.5Z" fill="currentColor"/>
</svg>
