<svg width="20" height="20" viewBox="0 0 20 20" fill="none" xmlns="http://www.w3.org/2000/svg">
<path d="M12.8 12.8H12.3V13.3H12.8V12.8ZM7.2 7.2H6.7V7.7H7.2V7.2ZM5.90039 11.6C5.62425 11.6 5.40039 11.8239 5.40039 12.1C5.40039 12.3761 5.62425 12.6 5.90039 12.6V11.6ZM9.90039 12.6C10.1765 12.6 10.4004 12.3761 10.4004 12.1C10.4004 11.8239 10.1765 11.6 9.90039 11.6V12.6ZM8.40039 10.1C8.40039 9.82386 8.17653 9.6 7.90039 9.6C7.62425 9.6 7.40039 9.82386 7.40039 10.1H8.40039ZM7.40039 14.1C7.40039 14.3761 7.62425 14.6 7.90039 14.6C8.17653 14.6 8.40039 14.3761 8.40039 14.1H7.40039ZM12.3 10.63V13.57H13.3V10.63H12.3ZM12.3 13.57C12.3 14.7457 12.0618 15.4386 11.6502 15.8502C11.2386 16.2618 10.5457 16.5 9.37 16.5V17.5C10.6443 17.5 11.6664 17.2482 12.3573 16.5573C13.0482 15.8664 13.3 14.8443 13.3 13.57H12.3ZM9.37 16.5H6.43V17.5H9.37V16.5ZM6.43 16.5C5.25431 16.5 4.56141 16.2618 4.1498 15.8502C3.7382 15.4386 3.5 14.7457 3.5 13.57H2.5C2.5 14.8443 2.7518 15.8664 3.4427 16.5573C4.13359 17.2482 5.15569 17.5 6.43 17.5V16.5ZM3.5 13.57V10.63H2.5V13.57H3.5ZM3.5 10.63C3.5 9.45431 3.7382 8.76141 4.1498 8.3498C4.56141 7.9382 5.25431 7.7 6.43 7.7V6.7C5.15569 6.7 4.13359 6.9518 3.4427 7.6427C2.7518 8.33359 2.5 9.35568 2.5 10.63H3.5ZM6.43 7.7H9.37V6.7H6.43V7.7ZM9.37 7.7C10.5457 7.7 11.2386 7.9382 11.6502 8.3498C12.0618 8.76141 12.3 9.45431 12.3 10.63H13.3C13.3 9.35568 13.0482 8.33359 12.3573 7.6427C11.6664 6.9518 10.6443 6.7 9.37 6.7V7.7ZM16.5 6.43V9.37H17.5V6.43H16.5ZM16.5 9.37C16.5 10.5457 16.2618 11.2386 15.8502 11.6502C15.4386 12.0618 14.7457 12.3 13.57 12.3V13.3C14.8443 13.3 15.8664 13.0482 16.5573 12.3573C17.2482 11.6664 17.5 10.6443 17.5 9.37H16.5ZM13.57 12.3H12.8V13.3H13.57V12.3ZM13.3 12.8V10.63H12.3V12.8H13.3ZM9.37 6.7H7.2V7.7H9.37V6.7ZM7.7 7.2V6.43H6.7V7.2H7.7ZM7.7 6.43C7.7 5.25431 7.9382 4.56141 8.3498 4.1498C8.76141 3.7382 9.45431 3.5 10.63 3.5V2.5C9.35568 2.5 8.33359 2.7518 7.6427 3.4427C6.9518 4.13359 6.7 5.15569 6.7 6.43H7.7ZM10.63 3.5H13.57V2.5H10.63V3.5ZM13.57 3.5C14.7457 3.5 15.4386 3.7382 15.8502 4.1498C16.2618 4.56141 16.5 5.25431 16.5 6.43H17.5C17.5 5.15569 17.2482 4.13359 16.5573 3.4427C15.8664 2.7518 14.8443 2.5 13.57 2.5V3.5ZM5.90039 12.6H7.90039V11.6H5.90039V12.6ZM7.90039 12.6H9.90039V11.6H7.90039V12.6ZM7.40039 10.1V12.1H8.40039V10.1H7.40039ZM7.40039 12.1V14.1H8.40039V12.1H7.40039Z" fill="currentColor"/>
</svg>
