<svg width="20" height="20" viewBox="0 0 20 20" fill="none" xmlns="http://www.w3.org/2000/svg">
<path d="M14 12H10M6.5 8L6.66301 8.11718C7.55433 8.75804 8 9.07844 8 9.5C8 9.92156 7.55433 10.242 6.66301 10.8828L6.5 11M3 10C3 6.70016 3 5.05025 4.02513 4.02513C5.05025 3 6.70016 3 10 3C13.2998 3 14.9498 3 15.9749 4.02513C17 5.05025 17 6.70016 17 10C17 13.2998 17 14.9498 15.9749 15.9749C14.9498 17 13.2998 17 10 17C6.70016 17 5.05025 17 4.02513 15.9749C3 14.9498 3 13.2998 3 10Z" stroke="#21232A" stroke-linecap="round"/>
</svg>
