<svg width="20" height="20" viewBox="0 0 20 20" fill="none" xmlns="http://www.w3.org/2000/svg">
<path d="M10 18C8.89333 18 7.85333 17.79 6.88 17.37C5.90667 16.95 5.06 16.38 4.34 15.66C3.62 14.94 3.05 14.0933 2.63 13.12C2.21 12.1467 2 11.1067 2 10C2 8.89333 2.21 7.85333 2.63 6.88C3.05 5.90667 3.62 5.06 4.34 4.34C5.06 3.62 5.90667 3.05 6.88 2.63C7.85333 2.21 8.89333 2 10 2C11.1067 2 12.1467 2.21 13.12 2.63C14.0933 3.05 14.94 3.62 15.66 4.34C16.38 5.06 16.95 5.90667 17.37 6.88C17.79 7.85333 18 8.89333 18 10C18 11.1067 17.79 12.1467 17.37 13.12C16.95 14.0933 16.38 14.94 15.66 15.66C14.94 16.38 14.0933 16.95 13.12 17.37C12.1467 17.79 11.1067 18 10 18Z" fill="currentColor"/>
<path d="M10 6C9.44772 6 9 6.44772 9 7V9.5C9 10.0523 9.44772 10.5 10 10.5C10.5523 10.5 11 10.0523 11 9.5V7C11 6.44772 10.5523 6 10 6Z" fill="white"/>
<path d="M10 11.5C9.44772 11.5 9 11.9477 9 12.5C9 13.0523 9.44772 13.5 10 13.5C10.5523 13.5 11 13.0523 11 12.5C11 11.9477 10.5523 11.5 10 11.5Z" fill="white"/>
</svg>
