<svg width="20" height="20" viewBox="0 0 20 20" fill="none" xmlns="http://www.w3.org/2000/svg">
<path d="M5.33333 3C4.04467 3 3 4.01643 3 5.27027V12.0811C3 13.3349 4.04467 14.3514 5.33333 14.3514H6.79167C7.15888 14.3514 7.50467 14.5196 7.725 14.8054L9.06667 16.5459C9.53333 17.1514 10.4667 17.1514 10.9333 16.5459L12.275 14.8054C12.4953 14.5196 12.8411 14.3514 13.2083 14.3514H14.6667C15.9553 14.3514 17 13.3349 17 12.0811V5.27027C17 4.01643 15.9553 3 14.6667 3H5.33333Z" stroke="currentColor"/>
<rect x="9.32495" y="11" width="1.25" height="1.25" rx="0.625" fill="currentColor"/>
<path d="M9.5 6L9.58303 10H10.417L10.5 6H9.5Z" fill="currentColor"/>
</svg>
