<svg width="20" height="20" viewBox="0 0 20 20" fill="none" xmlns="http://www.w3.org/2000/svg">
<path d="M16.5 9.34915H3.5M3.5 6.71735C3.5 6.14367 3.5 5.85686 3.54504 5.61794C3.74349 4.56619 4.56619 3.74349 5.61794 3.54504C5.85686 3.5 6.14367 3.5 6.71735 3.5C6.96869 3.5 7.09435 3.5 7.21509 3.51129C7.73583 3.55995 8.22971 3.76453 8.63232 4.09834C8.72573 4.1757 8.81456 4.26459 8.99227 4.44231L9.34997 4.8C9.88027 5.33024 10.1454 5.59537 10.4629 5.77201C10.6373 5.86904 10.8223 5.94569 11.0143 6.00042C11.3636 6.1 11.7386 6.1 12.4885 6.1H12.7314C14.4424 6.1 15.2979 6.1 15.8541 6.60012C15.9052 6.64617 15.9539 6.69483 15.9998 6.74599C16.5 7.30208 16.5 8.15758 16.5 9.86863V11.3C16.5 13.7513 16.5 14.977 15.7385 15.7385C14.977 16.5 13.7513 16.5 11.3 16.5H8.7C6.24866 16.5 5.02305 16.5 4.2615 15.7385C3.5 14.977 3.5 13.7513 3.5 11.3V6.71735Z" stroke="currentColor" stroke-linecap="round"/>
</svg>
