<svg width="20" height="20" viewBox="0 0 20 20" fill="none" xmlns="http://www.w3.org/2000/svg">
<path d="M8.00721 5.38587C8.89385 3.79529 9.33716 3 9.99999 3C10.6628 3 11.1061 3.79529 11.9928 5.38586L12.2221 5.79737C12.4741 6.24936 12.6001 6.47536 12.7966 6.62447C12.993 6.77359 13.2376 6.82894 13.7269 6.93964L14.1723 7.04043C15.8941 7.43 16.755 7.62478 16.9598 8.28342C17.1646 8.94203 16.5777 9.62838 15.4039 11.0009L15.1003 11.3561C14.7667 11.7461 14.5999 11.9411 14.5249 12.1824C14.4499 12.4237 14.4751 12.6839 14.5255 13.2043L14.5714 13.6781C14.7489 15.5094 14.8376 16.4251 14.3014 16.8322C13.7651 17.2392 12.9591 16.8681 11.347 16.1259L10.9299 15.9338C10.4719 15.7229 10.2428 15.6174 9.99999 15.6174C9.75716 15.6174 9.52812 15.7229 9.07004 15.9338L8.65298 16.1259C7.04087 16.8681 6.23482 17.2392 5.6986 16.8322C5.16238 16.4251 5.25111 15.5094 5.42858 13.6781L5.47448 13.2043C5.52492 12.6839 5.55013 12.4237 5.4751 12.1824C5.40007 11.9411 5.2333 11.7461 4.89974 11.3561L4.59607 11.0009C3.42228 9.62838 2.83538 8.94203 3.0402 8.28342C3.24502 7.62478 4.1059 7.43 5.82768 7.04043L6.27312 6.93964C6.76239 6.82894 7.00703 6.77359 7.20345 6.62447C7.39988 6.47536 7.52587 6.24936 7.77782 5.79737L8.00721 5.38587Z" fill="#FFCE00"/>
</svg>
