<svg width="20" height="20" viewBox="0 0 20 20" fill="none" xmlns="http://www.w3.org/2000/svg">
<path d="M5 10.3001L6.05093 9.3805C6.5977 8.90213 7.42177 8.92955 7.93547 9.44325L10.5093 12.0171C10.9216 12.4295 11.5707 12.4857 12.0479 12.1503L12.2268 12.0246C12.9133 11.5421 13.8422 11.598 14.4659 12.1594L16.4 13.9001M5.5 5H4C3.26884 5.05497 2.81273 5.21901 2.48814 5.70856C2 6.44488 2 7.62989 2 10C2 12.3701 2 13.5552 2.48814 14.2914C2.81273 14.781 3.26884 14.945 4 15L5.5 15.1213M5 10C5 7.17153 5 5.75736 5.87865 4.87865C6.75736 4 8.17153 4 11 4C13.8284 4 15.2426 4 16.1213 4.87865C17 5.75736 17 7.17153 17 10C17 12.8284 17 14.2426 16.1213 15.1213C15.2427 16 13.8284 16 11 16C8.17153 16 6.75736 16 5.87865 15.1213C5 14.2427 5 12.8284 5 10ZM12.2019 7.60001C12.1999 8.52375 13.1987 9.10326 13.9997 8.6431C14.373 8.42859 14.6028 8.03056 14.6019 7.60001C14.6039 6.67622 13.6051 6.09676 12.8041 6.55693C12.4308 6.77138 12.201 7.16946 12.2019 7.60001Z" stroke="currentColor" stroke-linecap="round"/>
</svg>
