<svg width="20" height="20" viewBox="0 0 20 20" fill="none" xmlns="http://www.w3.org/2000/svg">
<path d="M4.10893 14.0019C4.10893 14.278 4.33279 14.5019 4.60893 14.5019C4.88507 14.5019 5.10893 14.278 5.10893 14.0019H4.10893ZM5.10893 9.64097C5.10893 9.36483 4.88507 9.14097 4.60893 9.14097C4.33279 9.14097 4.10893 9.36483 4.10893 9.64097H5.10893ZM15.8911 9.64097C15.8911 9.36483 15.6672 9.14097 15.3911 9.14097C15.1149 9.14097 14.8911 9.36483 14.8911 9.64097H15.8911ZM14.8911 14.0019C14.8911 14.278 15.1149 14.5019 15.3911 14.5019C15.6672 14.5019 15.8911 14.278 15.8911 14.0019H14.8911ZM10.2675 12.4845L10.0173 12.0516L10.2675 12.4845ZM9.73253 12.4845L9.48238 12.9175L9.73253 12.4845ZM16.7284 7.80489L16.9785 7.37197L16.7284 7.80489ZM16.7284 8.75148L16.9785 9.18441L16.7284 8.75148ZM9.73253 4.07182L9.48238 3.63889L9.73253 4.07182ZM10.2675 4.07182L10.5176 3.63889L10.2675 4.07182ZM3.27164 7.80489L3.52178 8.23782L3.27164 7.80489ZM3.27164 8.75148L3.52178 8.31855L3.27164 8.75148ZM10.2472 7.77543C10.0072 7.6389 9.7019 7.72282 9.56538 7.96285C9.42886 8.20288 9.51277 8.50814 9.7528 8.64467L10.2472 7.77543ZM13.4989 10.2001L13.7461 9.76551L13.4989 10.2001ZM13.2737 17C13.2737 17.2761 13.4976 17.5 13.7737 17.5C14.0499 17.5 14.2737 17.2761 14.2737 17H13.2737ZM5.10893 14.0019V9.64097H4.10893V14.0019H5.10893ZM14.8911 9.64097V14.0019H15.8911V9.64097H14.8911ZM14.8911 13.7293C14.8911 13.8507 14.8323 14.0154 14.6219 14.2167C14.4101 14.4192 14.0772 14.6246 13.6246 14.8076C12.722 15.1726 11.4408 15.4098 10 15.4098V16.4098C11.5366 16.4098 12.9509 16.1588 13.9995 15.7346C14.5226 15.5231 14.9791 15.2587 15.313 14.9394C15.6481 14.619 15.8911 14.2101 15.8911 13.7293H14.8911ZM10 15.4098C8.55921 15.4098 7.27796 15.1726 6.37541 14.8076C5.92283 14.6246 5.5899 14.4192 5.37814 14.2167C5.16766 14.0154 5.10893 13.8507 5.10893 13.7293H4.10893C4.10893 14.2101 4.35191 14.619 4.68703 14.9394C5.02088 15.2587 5.47745 15.5231 6.00046 15.7346C7.0491 16.1588 8.46339 16.4098 10 16.4098V15.4098ZM3.52178 8.23782L9.98267 4.50475L9.48238 3.63889L3.02149 7.37197L3.52178 8.23782ZM10.0173 4.50475L16.4782 8.23782L16.9785 7.37197L10.5176 3.63889L10.0173 4.50475ZM16.4782 8.31855L10.0173 12.0516L10.5176 12.9175L16.9785 9.18441L16.4782 8.31855ZM9.98267 12.0516L3.52178 8.31855L3.02149 9.18441L9.48238 12.9175L9.98267 12.0516ZM10.0173 12.0516C10.0064 12.058 9.99364 12.058 9.98267 12.0516L9.48238 12.9175C9.8029 13.1027 10.1971 13.1027 10.5176 12.9175L10.0173 12.0516ZM16.4782 8.23782C16.488 8.24347 16.4918 8.24859 16.4941 8.25286C16.4972 8.25853 16.5 8.26728 16.5 8.27819C16.5 8.28909 16.4972 8.29785 16.4941 8.30351C16.4918 8.30778 16.488 8.3129 16.4782 8.31855L16.9785 9.18441C17.6738 8.78265 17.6738 7.77372 16.9785 7.37197L16.4782 8.23782ZM9.98267 4.50475C9.99364 4.49842 10.0064 4.49842 10.0173 4.50475L10.5176 3.63889C10.1971 3.4537 9.8029 3.4537 9.48238 3.63889L9.98267 4.50475ZM3.02149 7.37197C2.32617 7.77372 2.32617 8.78265 3.02149 9.18441L3.52178 8.31855C3.512 8.3129 3.50823 8.30778 3.50588 8.30351C3.50276 8.29785 3.5 8.28909 3.5 8.27819C3.5 8.26728 3.50276 8.25853 3.50588 8.25286C3.50823 8.24859 3.512 8.24347 3.52178 8.23782L3.02149 7.37197ZM9.7528 8.64467L13.2517 10.6347L13.7461 9.76551L10.2472 7.77543L9.7528 8.64467ZM13.2737 10.6752V17H14.2737V10.6752H13.2737ZM13.2517 10.6347C13.2636 10.6415 13.2737 10.6562 13.2737 10.6752H14.2737C14.2737 10.3004 14.0738 9.95188 13.7461 9.76551L13.2517 10.6347Z" fill="#21232A"/>
</svg>
