<svg width="20" height="20" viewBox="0 0 20 20" fill="none" xmlns="http://www.w3.org/2000/svg">
<path d="M2.5 6C2.5 6.27614 2.72386 6.5 3 6.5C3.27614 6.5 3.5 6.27614 3.5 6H2.5ZM6 3.5C6.27614 3.5 6.5 3.27614 6.5 3C6.5 2.72386 6.27614 2.5 6 2.5V3.5ZM14 2.5C13.7239 2.5 13.5 2.72386 13.5 3C13.5 3.27614 13.7239 3.5 14 3.5V2.5ZM16.5 6C16.5 6.27614 16.7239 6.5 17 6.5C17.2761 6.5 17.5 6.27614 17.5 6H16.5ZM17.5 14C17.5 13.7239 17.2761 13.5 17 13.5C16.7239 13.5 16.5 13.7239 16.5 14H17.5ZM14 16.5C13.7239 16.5 13.5 16.7239 13.5 17C13.5 17.2761 13.7239 17.5 14 17.5V16.5ZM6 17.5C6.27614 17.5 6.5 17.2761 6.5 17C6.5 16.7239 6.27614 16.5 6 16.5V17.5ZM3.5 14C3.5 13.7239 3.27614 13.5 3 13.5C2.72386 13.5 2.5 13.7239 2.5 14H3.5ZM3.5 6V4.5H2.5V6H3.5ZM3.5 4.5C3.5 3.95114 3.95114 3.5 4.5 3.5V2.5C3.39886 2.5 2.5 3.39886 2.5 4.5H3.5ZM4.5 3.5H6V2.5H4.5V3.5ZM14 3.5H15.5V2.5H14V3.5ZM15.5 3.5C16.0489 3.5 16.5 3.95114 16.5 4.5H17.5C17.5 3.39886 16.6011 2.5 15.5 2.5V3.5ZM16.5 4.5V6H17.5V4.5H16.5ZM16.5 14V15.5H17.5V14H16.5ZM16.5 15.5C16.5 16.0489 16.0489 16.5 15.5 16.5V17.5C16.6011 17.5 17.5 16.6011 17.5 15.5H16.5ZM15.5 16.5H14V17.5H15.5V16.5ZM6 16.5H4.5V17.5H6V16.5ZM4.5 16.5C3.95114 16.5 3.5 16.0489 3.5 15.5H2.5C2.5 16.6011 3.39886 17.5 4.5 17.5V16.5ZM3.5 15.5V14H2.5V15.5H3.5ZM7 6.5H11V5.5H7V6.5ZM11.5 7V9H12.5V7H11.5ZM11 9.5H7V10.5H11V9.5ZM6.5 9V7H5.5V9H6.5ZM7 9.5C6.72386 9.5 6.5 9.27614 6.5 9H5.5C5.5 9.82843 6.17157 10.5 7 10.5V9.5ZM11.5 9C11.5 9.27614 11.2761 9.5 11 9.5V10.5C11.8284 10.5 12.5 9.82843 12.5 9H11.5ZM11 6.5C11.2761 6.5 11.5 6.72386 11.5 7H12.5C12.5 6.17157 11.8284 5.5 11 5.5V6.5ZM7 5.5C6.17157 5.5 5.5 6.17157 5.5 7H6.5C6.5 6.72386 6.72386 6.5 7 6.5V5.5ZM9 10.5H13V9.5H9V10.5ZM13.5 11V13H14.5V11H13.5ZM13 13.5H9V14.5H13V13.5ZM8.5 13V11H7.5V13H8.5ZM9 13.5C8.72386 13.5 8.5 13.2761 8.5 13H7.5C7.5 13.8284 8.17157 14.5 9 14.5V13.5ZM13.5 13C13.5 13.2761 13.2761 13.5 13 13.5V14.5C13.8284 14.5 14.5 13.8284 14.5 13H13.5ZM13 10.5C13.2761 10.5 13.5 10.7239 13.5 11H14.5C14.5 10.1716 13.8284 9.5 13 9.5V10.5ZM9 9.5C8.17157 9.5 7.5 10.1716 7.5 11H8.5C8.5 10.7239 8.72386 10.5 9 10.5V9.5Z" fill="currentColor"/>
</svg>
