<svg width="20" height="20" viewBox="0 0 20 20" fill="none" xmlns="http://www.w3.org/2000/svg">
<path d="M4.23756 16.1614C4.96322 14.9127 7.26844 14 10 14C12.7316 14 15.0368 14.9127 15.7624 16.1614M3 10C3 6.70012 3 5.05025 4.02509 4.02509C5.05025 3 6.70012 3 10 3C13.2998 3 14.9498 3 15.9748 4.02509C17 5.05025 17 6.70012 17 10C17 13.2998 17 14.9498 15.9748 15.9748C14.9498 17 13.2998 17 10 17C6.70012 17 5.05025 17 4.02509 15.9748C3 14.9498 3 13.2998 3 10ZM7.2 8.8C7.2 9.54261 7.495 10.2548 8.0201 10.7799C8.5452 11.305 9.25739 11.6 10 11.6C10.7426 11.6 11.4548 11.305 11.9799 10.7799C12.505 10.2548 12.8 9.54261 12.8 8.8C12.8 8.05739 12.505 7.3452 11.9799 6.8201C11.4548 6.295 10.7426 6 10 6C9.25739 6 8.5452 6.295 8.0201 6.8201C7.495 7.3452 7.2 8.05739 7.2 8.8Z" stroke="currentColor"/>
</svg>
