<svg width="20" height="20" viewBox="0 0 20 20" fill="none" xmlns="http://www.w3.org/2000/svg">
<path d="M17.3845 16H13.4095V14.7131C13.4095 14.0316 13.7741 13.4087 14.3513 13.104L16.5391 11.9487C17.0323 11.6882 17.3845 11.1851 17.3845 10.6027C17.3845 10.2043 17.3538 9.81347 17.2949 9.4327C17.1928 8.77344 16.663 8.2959 16.0325 8.24256C15.7292 8.2169 15.4226 8.20382 15.1131 8.20382C14.5341 8.20382 13.9653 8.24958 13.4095 8.33785M2.61523 4V9.99754M2.61523 9.99754V15.995M2.61523 9.99754L10.5652 9.9981M10.5652 9.9981V4.00058M10.5652 9.9981V15.9956" stroke="currentColor" stroke-linecap="round" stroke-linejoin="round"/>
</svg>
