<svg width="20" height="20" viewBox="0 0 20 20" fill="none" xmlns="http://www.w3.org/2000/svg">
<path d="M16.7451 12.1019C17.1475 12.6927 17.3845 13.4176 17.3845 14.2009C17.3845 14.4694 17.3566 14.7311 17.3038 14.9828C17.1872 15.5389 16.702 15.8972 16.165 15.9493C15.8186 15.9829 15.4678 16 15.1131 16C14.5342 16 13.9653 15.9543 13.4096 15.866M16.7451 12.1019C17.1475 11.5112 17.3845 10.7863 17.3845 10.003C17.3845 9.73439 17.3566 9.47276 17.3038 9.22105C17.1872 8.66494 16.702 8.30667 16.165 8.25459C15.8186 8.22099 15.4678 8.20382 15.1131 8.20382C14.5342 8.20382 13.9653 8.24958 13.4096 8.33785M16.7451 12.1019H14.5453M2.61523 4V9.99754M2.61523 9.99754V15.995M2.61523 9.99754L10.5651 9.9981M10.5651 9.9981V4.00058M10.5651 9.9981V15.9956" stroke="currentColor" stroke-linecap="round" stroke-linejoin="round"/>
</svg>
