<svg width="20" height="20" viewBox="0 0 20 20" fill="none" xmlns="http://www.w3.org/2000/svg">
<path d="M10.4706 14C10.2877 14 10.1122 13.9273 9.98282 13.7979C9.85344 13.6686 9.78076 13.4931 9.78076 13.3101C9.78076 13.1271 9.85344 12.9517 9.98282 12.8223C10.1122 12.6929 10.2877 12.6202 10.4706 12.6202C10.6536 12.6202 10.8291 12.6929 10.9585 12.8223C11.0879 12.9517 11.1605 13.1271 11.1605 13.3101C11.1605 13.4931 11.0879 13.6686 10.9585 13.7979C10.8291 13.9273 10.6536 14 10.4706 14ZM8.60562 8.56588C8.53743 8.56539 8.47011 8.55047 8.40809 8.52212C8.34607 8.49376 8.29076 8.4526 8.24578 8.40134C8.2008 8.35009 8.16717 8.28989 8.14712 8.22471C8.12706 8.15954 8.12102 8.09085 8.12939 8.02318C8.16073 7.75491 8.21058 7.53555 8.27895 7.3651C8.39486 7.08258 8.57517 6.83106 8.80551 6.63058C9.03938 6.41921 9.3134 6.25709 9.61125 6.15388C9.91316 6.05038 10.2303 5.99837 10.5495 6.00004C11.2142 6.00004 11.7673 6.19566 12.2099 6.58737C12.6524 6.97766 12.8741 7.49899 12.8741 8.14947C12.8741 8.44195 12.8171 8.70689 12.7032 8.94429C12.5902 9.18217 12.349 9.47845 11.98 9.83265C11.6102 10.1873 11.3661 10.4394 11.2451 10.5895C11.1196 10.7489 11.0267 10.9313 10.9716 11.1265C10.9383 11.2362 10.9146 11.3658 10.9018 11.5149C10.879 11.7665 10.6767 11.9659 10.4241 11.9659C10.3569 11.9655 10.2906 11.9511 10.2292 11.9236C10.1679 11.8961 10.113 11.8562 10.068 11.8062C10.0231 11.7563 9.98896 11.6976 9.96795 11.6338C9.94693 11.57 9.93945 11.5025 9.94599 11.4356C9.96261 11.2628 9.98777 11.1122 10.0229 10.984C10.088 10.7395 10.1867 10.5259 10.3187 10.3431C10.4502 10.1598 10.6876 9.89105 11.0309 9.53637C11.3747 9.18217 11.5959 8.92388 11.6956 8.76387C11.7934 8.60291 11.8965 8.34129 11.8965 8.02318C11.8965 7.70506 11.7289 7.44629 11.5033 7.20129C11.2764 6.95629 10.9473 6.83332 10.5158 6.83332C9.67345 6.83332 9.1958 7.26681 9.08375 8.1338C9.05193 8.37785 8.85347 8.56588 8.60752 8.56588H8.60562Z" fill="currentColor"/>
<circle cx="10.5" cy="10.5" r="7.5" stroke="currentColor"/>
</svg>
