<svg width="20" height="20" viewBox="0 0 20 20" fill="none" xmlns="http://www.w3.org/2000/svg">
<path d="M9.96991 14C9.78694 14 9.61147 13.9273 9.48209 13.7979C9.35271 13.6686 9.28003 13.4931 9.28003 13.3101C9.28003 13.1271 9.35271 12.9517 9.48209 12.8223C9.61147 12.6929 9.78694 12.6202 9.96991 12.6202C10.1529 12.6202 10.3284 12.6929 10.4577 12.8223C10.5871 12.9517 10.6598 13.1271 10.6598 13.3101C10.6598 13.4931 10.5871 13.6686 10.4577 13.7979C10.3284 13.9273 10.1529 14 9.96991 14ZM8.10489 8.56588C8.03669 8.56539 7.96938 8.55047 7.90736 8.52212C7.84534 8.49376 7.79002 8.4526 7.74505 8.40134C7.70007 8.35009 7.66644 8.28989 7.64638 8.22471C7.62632 8.15954 7.62028 8.09085 7.62866 8.02318C7.66 7.75491 7.70985 7.53555 7.77822 7.3651C7.89413 7.08258 8.07444 6.83106 8.30478 6.63058C8.53864 6.41921 8.81267 6.25709 9.11052 6.15388C9.41243 6.05038 9.72958 5.99837 10.0487 6.00004C10.7135 6.00004 11.2666 6.19566 11.7091 6.58737C12.1516 6.97766 12.3734 7.49899 12.3734 8.14947C12.3734 8.44195 12.3164 8.70689 12.2024 8.94429C12.0894 9.18217 11.8482 9.47845 11.4793 9.83265C11.1094 10.1873 10.8654 10.4394 10.7443 10.5895C10.6189 10.7489 10.526 10.9313 10.4708 11.1265C10.4376 11.2362 10.4139 11.3658 10.401 11.5149C10.3782 11.7665 10.176 11.9659 9.92338 11.9659C9.85619 11.9655 9.78982 11.9511 9.72852 11.9236C9.66721 11.8961 9.61231 11.8562 9.56732 11.8062C9.52232 11.7563 9.48823 11.6976 9.46722 11.6338C9.4462 11.57 9.43872 11.5025 9.44526 11.4356C9.46187 11.2628 9.48704 11.1122 9.52217 10.984C9.58722 10.7395 9.68598 10.5259 9.81798 10.3431C9.9495 10.1598 10.1869 9.89105 10.5302 9.53637C10.8739 9.18217 11.0952 8.92388 11.1949 8.76387C11.2927 8.60291 11.3957 8.34129 11.3957 8.02318C11.3957 7.70506 11.2281 7.44629 11.0026 7.20129C10.7757 6.95629 10.4466 6.83332 10.015 6.83332C9.17272 6.83332 8.69507 7.26681 8.58301 8.1338C8.5512 8.37785 8.35273 8.56588 8.10679 8.56588H8.10489Z" fill="currentColor"/>
<circle cx="10" cy="10" r="7.5" stroke="currentColor"/>
</svg>
