<svg width="20" height="20" viewBox="0 0 20 20" fill="none" xmlns="http://www.w3.org/2000/svg">
<path d="M17 8.95V10C17 13.2998 17 14.9498 15.9749 15.9749C14.9498 17 13.2998 17 10 17C6.70016 17 5.05025 17 4.02513 15.9749C3 14.9498 3 13.2998 3 10C3 6.70016 3 5.05025 4.02513 4.02513C5.05025 3 6.70016 3 10 3H11.05M6.5 10.875H12.625M6.5 13.5H10M12.625 5.1875C12.625 5.76766 12.8555 6.32406 13.2657 6.7343C13.6759 7.14453 14.2323 7.375 14.8125 7.375C15.3927 7.375 15.9491 7.14453 16.3593 6.7343C16.7695 6.32406 17 5.76766 17 5.1875C17 4.60734 16.7695 4.05094 16.3593 3.6407C15.9491 3.23047 15.3927 3 14.8125 3C14.2323 3 13.6759 3.23047 13.2657 3.6407C12.8555 4.05094 12.625 4.60734 12.625 5.1875Z" stroke="currentColor" stroke-linecap="round"/>
</svg>
