<svg width="20" height="20" viewBox="0 0 20 20" fill="none" xmlns="http://www.w3.org/2000/svg">
<path d="M11.459 11.5106C11.0629 11.8931 10.5325 12.1048 9.9819 12.1C9.43132 12.0952 8.90464 11.8744 8.5153 11.485C8.12596 11.0957 7.90512 10.569 7.90034 10.0184C7.89555 9.46783 8.10721 8.93739 8.48972 8.54135M9.11339 5.15352C10.7439 4.95921 12.3932 5.30388 13.8094 6.1349C15.2256 6.96592 16.3309 8.23762 16.9565 9.75579C17.0148 9.91294 17.0148 10.0858 16.9565 10.243C16.6993 10.8666 16.3593 11.4529 15.9457 11.9859M13.8354 13.8492C12.9068 14.3992 11.8709 14.743 10.7978 14.8574C9.72464 14.9718 8.63948 14.854 7.61591 14.512C6.59233 14.17 5.6543 13.6118 4.86545 12.8754C4.0766 12.1389 3.4554 11.2414 3.044 10.2437C2.98566 10.0865 2.98566 9.91364 3.044 9.75649C3.66461 8.25146 4.75658 6.9883 6.15604 6.15657M3.0006 3.00043L16.9999 16.9997" stroke="currentColor" stroke-linecap="round" stroke-linejoin="round"/>
</svg>
