<svg width="20" height="20" viewBox="0 0 20 20" fill="none" xmlns="http://www.w3.org/2000/svg">
<path d="M3.5 5L3.14645 4.64645L3.14645 4.64645L3.5 5ZM14.6 4.99995L14.9536 4.6464H14.9536L14.6 4.99995ZM15 8.5C15 8.77614 15.2239 9 15.5 9C15.7761 9 16 8.77614 16 8.5H15ZM3.43726 13.8627L3.79081 13.5092L3.7908 13.5092L3.43726 13.8627ZM11.5 15.3C11.7761 15.3 12 15.0761 12 14.8C12 14.5239 11.7761 14.3 11.5 14.3V15.3ZM5.5 7.5C5.22386 7.5 5 7.72386 5 8C5 8.27614 5.22386 8.5 5.5 8.5V7.5ZM7 8.5C7.27614 8.5 7.5 8.27614 7.5 8C7.5 7.72386 7.27614 7.5 7 7.5V8.5ZM9.5 7.5C9.22386 7.5 9 7.72386 9 8C9 8.27614 9.22386 8.5 9.5 8.5V7.5ZM12.5 8.5C12.7761 8.5 13 8.27614 13 8C13 7.72386 12.7761 7.5 12.5 7.5V8.5ZM5.5 10.5C5.22386 10.5 5 10.7239 5 11C5 11.2761 5.22386 11.5 5.5 11.5V10.5ZM12 11.5C12.2761 11.5 12.5 11.2761 12.5 11C12.5 10.7239 12.2761 10.5 12 10.5V11.5ZM17.8542 14.3529C18.0491 14.1573 18.0485 13.8407 17.8529 13.6458C17.6573 13.4509 17.3407 13.4515 17.1458 13.6471L17.8542 14.3529ZM15.5073 16L15.1544 16.3542C15.2484 16.4478 15.3757 16.5002 15.5083 16.5C15.6409 16.4998 15.768 16.4468 15.8615 16.3529L15.5073 16ZM13.8529 13.6458C13.6573 13.4509 13.3407 13.4515 13.1458 13.6471C12.9509 13.8427 12.9515 14.1593 13.1471 14.3542L13.8529 13.6458ZM16.0074 11C16.0074 10.7239 15.7836 10.5 15.5074 10.5C15.2313 10.5 15.0074 10.7239 15.0074 11L16.0074 11ZM3 9.5C3 8.48692 3.01678 7.63824 3.14098 6.93167C3.26393 6.23221 3.48421 5.7229 3.85355 5.35355L3.14645 4.64645C2.57853 5.21436 2.29881 5.94656 2.15608 6.75854C2.0146 7.5634 2 8.49609 2 9.5H3ZM3.85355 5.35355C4.20108 5.00603 4.80646 4.77355 5.78558 4.64422C6.75318 4.51642 7.9857 4.5 9.5 4.5V3.5C7.99731 3.5 6.69846 3.51496 5.65463 3.65283C4.62231 3.78919 3.73618 4.05672 3.14645 4.64645L3.85355 5.35355ZM14.2464 5.35351C14.5385 5.64556 14.7305 6.04663 14.8474 6.58026C14.9652 7.11829 15 7.759 15 8.5H16C16 7.741 15.9658 7.01274 15.8242 6.36628C15.6816 5.71541 15.4236 5.11645 14.9536 4.6464L14.2464 5.35351ZM9.5 14.3C7.98099 14.3 6.73233 14.2993 5.74571 14.1861C4.74443 14.0712 4.13237 13.8507 3.79081 13.5092L3.0837 14.2163C3.6794 14.812 4.59022 15.0601 5.63175 15.1796C6.68794 15.3007 8.00202 15.3 9.5 15.3V14.3ZM3.7908 13.5092C3.42131 13.1397 3.21777 12.6611 3.11073 12C3.00137 11.3246 3 10.513 3 9.5H2C2 10.487 1.99863 11.3881 2.12359 12.1598C2.25086 12.9458 2.51595 13.6486 3.08371 14.2163L3.7908 13.5092ZM9.5 4.5C11.0037 4.5 12.048 4.55999 12.8009 4.70515C13.5443 4.84845 13.9596 5.06666 14.2465 5.35351L14.9536 4.6464C14.4783 4.17114 13.8521 3.88938 12.9902 3.72323C12.138 3.55893 11.0132 3.5 9.5 3.5V4.5ZM9.5 15.3H11.5V14.3H9.5V15.3ZM5.5 8.5H7V7.5H5.5V8.5ZM9.5 8.5H12.5V7.5H9.5V8.5ZM5.5 11.5H12V10.5H5.5V11.5ZM17.1458 13.6471L15.1531 15.6471L15.8615 16.3529L17.8542 14.3529L17.1458 13.6471ZM15.8603 15.6458L13.8529 13.6458L13.1471 14.3542L15.1544 16.3542L15.8603 15.6458ZM16.0073 16L16.0074 11L15.0074 11L15.0073 16L16.0073 16Z" fill="currentColor"/>
</svg>
