<svg width="20" height="20" viewBox="0 0 20 20" fill="none" xmlns="http://www.w3.org/2000/svg">
<path d="M7.9 12.8C8.49527 13.2412 9.21922 13.5 10 13.5C10.7808 13.5 11.5047 13.2412 12.1 12.8M3 10.1427C3 8.54084 3 7.7399 3.36344 7.07592C3.72688 6.41195 4.39087 5.99986 5.71882 5.17569L7.11882 4.30681C8.52257 3.4356 9.22447 3 10 3C10.7755 3 11.4774 3.4356 12.8812 4.30681L14.2812 5.17568C15.6092 5.99986 16.2731 6.41195 16.6366 7.07592C17 7.7399 17 8.54084 17 10.1427V11.2075C17 13.9381 17 15.3034 16.1799 16.1517C15.3598 17 14.0398 17 11.4 17H8.6C5.96013 17 4.64021 17 3.8201 16.1517C3 15.3034 3 13.9381 3 11.2075V10.1427Z" stroke="currentColor" stroke-linecap="round"/>
</svg>
