<svg width="20" height="20" viewBox="0 0 20 20" fill="none" xmlns="http://www.w3.org/2000/svg">
<path d="M3 10.3501L4.22608 9.27725C4.86398 8.71915 5.8254 8.75114 6.42472 9.35046L9.42756 12.3533C9.90856 12.8344 10.6659 12.9 11.2225 12.5087L11.4312 12.3621C12.2322 11.7992 13.3159 11.8644 14.0436 12.5193L16.3 14.5501M3 10C3 6.70012 3 5.05025 4.02509 4.02509C5.05025 3 6.70012 3 10 3C13.2998 3 14.9498 3 15.9748 4.02509C17 5.05025 17 6.70012 17 10C17 13.2998 17 14.9498 15.9748 15.9748C14.9498 17 13.2998 17 10 17C6.70012 17 5.05025 17 4.02509 15.9748C3 14.9498 3 13.2998 3 10ZM11.4023 7.20059C11.4 8.27828 12.5653 8.95438 13.4998 8.41752C13.9353 8.16726 14.2034 7.70289 14.2023 7.20059C14.2047 6.12283 13.0394 5.44679 12.1049 5.98366C11.6694 6.23385 11.4013 6.69828 11.4023 7.20059Z" stroke="currentColor" stroke-linecap="round"/>
</svg>
