<svg width="20" height="20" viewBox="0 0 20 20" fill="none" xmlns="http://www.w3.org/2000/svg">
<path d="M11.569 11.0018C11.0008 10.9193 10.3989 10.875 9.77586 10.875C6.3098 10.875 3.5 12.2461 3.5 13.9375C3.5 15.6289 3.5 17 9.77586 17C11.5991 17 12.8926 16.8843 13.8103 16.6786M12.9138 13.0625H16.5M14.7069 14.8125V11.3125M6.77902 5.8C6.77902 6.54261 7.08128 7.2548 7.61932 7.7799C8.15735 8.305 8.88709 8.6 9.64798 8.6C10.4089 8.6 11.1386 8.305 11.6766 7.7799C12.2147 7.2548 12.5169 6.54261 12.5169 5.8C12.5169 5.05739 12.2147 4.3452 11.6766 3.8201C11.1386 3.295 10.4089 3 9.64798 3C8.88709 3 8.15735 3.295 7.61932 3.8201C7.08128 4.3452 6.77902 5.05739 6.77902 5.8Z" stroke="currentColor" stroke-linecap="round" stroke-linejoin="round"/>
</svg>
