<svg width="20" height="20" viewBox="0 0 20 20" fill="none" xmlns="http://www.w3.org/2000/svg">
<path d="M8.66741 9.35202L9.02024 9.70629C9.18572 9.54149 9.21507 9.28407 9.09093 9.08624L8.66741 9.35202ZM3.31809 14.6794L3.67091 15.0337L3.67091 15.0337L3.31809 14.6794ZM3.31809 16.1137L3.67093 15.7595L3.67091 15.7595L3.31809 16.1137ZM3.93531 16.7285L3.58247 17.0827C3.59154 17.0918 3.60095 17.1005 3.61069 17.1088L3.93531 16.7285ZM5.27262 16.7285L5.62544 17.0828L5.62545 17.0828L5.27262 16.7285ZM5.99272 16.0113L6.34554 15.6571C6.15045 15.4628 5.83498 15.4628 5.63989 15.6571L5.99272 16.0113ZM7.84441 15.9088L8.24394 16.2097L8.25071 16.2003L7.84441 15.9088ZM7.74153 14.4745L7.38872 14.1203C7.20303 14.3052 7.19162 14.6021 7.36257 14.8007L7.74153 14.4745ZM7.94728 14.2697L8.30011 13.9154C8.10502 13.7211 7.78956 13.7211 7.59446 13.9154L7.94728 14.2697ZM10.1076 14.2697L10.5071 14.5705L10.5139 14.5611L10.1076 14.2697ZM10.1076 12.8354L9.66073 13.0597C9.67247 13.0831 9.68603 13.1055 9.70129 13.1268L10.1076 12.8354ZM10.0047 11.9133L10.3575 12.2676L10.0047 11.9133ZM10.622 11.2986L10.9413 10.9138C10.7429 10.7492 10.4518 10.7624 10.2691 10.9443L10.622 11.2986ZM12.5765 12.3108C15.2938 12.3108 17.5 10.1165 17.5 7.40541H16.5C16.5 9.56038 14.7453 11.3108 12.5765 11.3108V12.3108ZM17.5 7.40541C17.5 4.6943 15.2938 2.5 12.5765 2.5V3.5C14.7453 3.5 16.5 5.25044 16.5 7.40541H17.5ZM12.5765 2.5C9.85927 2.5 7.65305 4.69431 7.65305 7.40541H8.65305C8.65305 5.25044 10.4077 3.5 12.5765 3.5V2.5ZM7.65305 7.40541C7.65305 8.04362 7.79833 8.59038 7.94159 8.9756C8.01353 9.16907 8.08598 9.32451 8.14172 9.43369C8.16964 9.48837 8.19349 9.5317 8.21119 9.56266C8.22004 9.57815 8.22736 9.59057 8.23289 9.5998C8.23566 9.60441 8.23798 9.60822 8.23983 9.61123C8.24075 9.61273 8.24155 9.61403 8.24223 9.61512C8.24257 9.61567 8.24288 9.61616 8.24316 9.61661C8.2433 9.61683 8.24343 9.61704 8.24355 9.61724C8.24361 9.61734 8.2437 9.61747 8.24373 9.61752C8.24381 9.61766 8.2439 9.61779 8.66741 9.35202C9.09093 9.08624 9.091 9.08637 9.09108 9.08649C9.0911 9.08653 9.09118 9.08665 9.09122 9.08672C9.09132 9.08686 9.0914 9.087 9.09148 9.08712C9.09163 9.08737 9.09175 9.08756 9.09184 9.08771C9.09203 9.08801 9.09209 9.08812 9.09204 9.08803C9.09194 9.08786 9.09137 9.08694 9.09037 9.08527C9.08837 9.08194 9.08465 9.07565 9.07943 9.06653C9.069 9.04827 9.05267 9.01876 9.03236 8.97898C8.99166 8.89927 8.93552 8.77936 8.87887 8.62704C8.76495 8.3207 8.65305 7.89416 8.65305 7.40541H7.65305ZM8.31458 8.99774L2.96526 14.3252L3.67091 15.0337L9.02024 9.70629L8.31458 8.99774ZM2.96526 14.3252C2.7886 14.5011 2.5812 14.8074 2.51859 15.1904C2.45085 15.6048 2.56167 16.0661 2.96526 16.468L3.67091 15.7595C3.49842 15.5877 3.48922 15.4513 3.50549 15.3517C3.52689 15.2208 3.60754 15.0968 3.67091 15.0337L2.96526 14.3252ZM2.96525 16.468L3.58247 17.0827L4.28815 16.3742L3.67093 15.7595L2.96525 16.468ZM3.61069 17.1088C3.78619 17.2586 4.08143 17.432 4.4357 17.4843C4.81484 17.5404 5.25334 17.4533 5.62544 17.0828L4.9198 16.3742C4.79812 16.4954 4.68797 16.5108 4.58191 16.4951C4.45098 16.4757 4.32445 16.4033 4.25994 16.3482L3.61069 17.1088ZM5.62545 17.0828L6.34555 16.3656L5.63989 15.6571L4.91979 16.3742L5.62545 17.0828ZM5.63989 16.3656C6.11729 16.841 6.67041 16.9689 7.16692 16.8738C7.63322 16.7845 8.02129 16.5052 8.24383 16.2096L7.44498 15.6081C7.3589 15.7224 7.18118 15.8529 6.97882 15.8916C6.80667 15.9246 6.58825 15.8988 6.34554 15.6571L5.63989 16.3656ZM8.25071 16.2003C8.62751 15.6749 8.58488 15.1372 8.46 14.7641C8.39886 14.5814 8.31724 14.4324 8.25198 14.3297C8.21894 14.2777 8.18897 14.2358 8.166 14.2054C8.15448 14.1901 8.14463 14.1776 8.13692 14.1681C8.13306 14.1634 8.12972 14.1593 8.12697 14.156C8.12559 14.1544 8.12436 14.1529 8.12328 14.1516C8.12274 14.151 8.12224 14.1504 8.12177 14.1499C8.12154 14.1496 8.12132 14.1493 8.12111 14.1491C8.121 14.149 8.12085 14.1488 8.1208 14.1487C8.12065 14.1486 8.1205 14.1484 7.74153 14.4745C7.36257 14.8007 7.36243 14.8005 7.36229 14.8004C7.36224 14.8003 7.3621 14.8002 7.36202 14.8001C7.36184 14.7999 7.36168 14.7997 7.36152 14.7995C7.36121 14.7991 7.36093 14.7988 7.36068 14.7985C7.36019 14.7979 7.35984 14.7975 7.35961 14.7972C7.35916 14.7967 7.35923 14.7968 7.35977 14.7974C7.36084 14.7988 7.36375 14.8024 7.3681 14.8082C7.37688 14.8198 7.39111 14.8395 7.4079 14.8659C7.4423 14.9201 7.48283 14.9952 7.51171 15.0815C7.56685 15.2462 7.57566 15.4257 7.43811 15.6174L8.25071 16.2003ZM8.09435 14.8288L8.3001 14.6239L7.59446 13.9154L7.38872 14.1203L8.09435 14.8288ZM7.59445 14.6239C8.18493 15.212 8.80881 15.3908 9.37521 15.2834C9.90549 15.1828 10.2985 14.8473 10.507 14.5705L9.7082 13.9689C9.60803 14.1018 9.41467 14.2581 9.18884 14.3009C8.99912 14.3369 8.69715 14.3108 8.30011 13.9154L7.59445 14.6239ZM10.5139 14.5611C10.8763 14.0558 10.8756 13.5387 10.7868 13.1673C10.7432 12.9852 10.6786 12.8354 10.6249 12.7306C10.5978 12.6778 10.5728 12.6349 10.5533 12.6036C10.5436 12.5879 10.5351 12.575 10.5284 12.565C10.5251 12.56 10.5222 12.5557 10.5197 12.5522C10.5185 12.5505 10.5174 12.5489 10.5164 12.5475C10.5159 12.5468 10.5155 12.5462 10.5151 12.5456C10.5149 12.5453 10.5147 12.545 10.5145 12.5447C10.5144 12.5446 10.5142 12.5444 10.5142 12.5443C10.514 12.5441 10.5139 12.5439 10.1076 12.8354C9.70129 13.1268 9.70116 13.1266 9.70103 13.1264C9.70098 13.1263 9.70086 13.1262 9.70077 13.126C9.70061 13.1258 9.70045 13.1256 9.7003 13.1254C9.7 13.125 9.69973 13.1246 9.69949 13.1242C9.699 13.1235 9.69863 13.123 9.69837 13.1226C9.69784 13.1219 9.69775 13.1217 9.69804 13.1222C9.69863 13.123 9.70074 13.1262 9.70404 13.1315C9.71069 13.1422 9.72182 13.161 9.73492 13.1866C9.76164 13.2388 9.79342 13.313 9.81418 13.3998C9.85398 13.5663 9.85327 13.7663 9.70129 13.9782L10.5139 14.5611ZM10.5545 12.611C10.4726 12.448 10.3726 12.3316 10.3029 12.2547C10.2613 12.2087 10.2481 12.1956 10.2271 12.1713C10.2105 12.1521 10.2144 12.1541 10.2228 12.1691C10.2335 12.1883 10.251 12.2276 10.2554 12.2816C10.2598 12.3361 10.2486 12.3772 10.2408 12.3972C10.2345 12.4135 10.2326 12.4102 10.2522 12.3842C10.2713 12.3589 10.304 12.3209 10.3575 12.2676L9.65186 11.559C9.51126 11.6991 9.3786 11.8555 9.30893 12.0344C9.22111 12.26 9.24912 12.4764 9.34948 12.6563C9.41795 12.779 9.53417 12.8956 9.56186 12.9261C9.61117 12.9805 9.63969 13.0178 9.66073 13.0597L10.5545 12.611ZM10.3575 12.2676L10.9748 11.6529L10.2691 10.9443L9.65186 11.559L10.3575 12.2676ZM10.3026 11.6833C10.6461 11.9684 11.1225 12.1166 11.5159 12.198C11.924 12.2825 12.3235 12.3108 12.5765 12.3108V11.3108C12.3838 11.3108 12.0528 11.2879 11.7186 11.2188C11.3696 11.1465 11.0916 11.0385 10.9413 10.9138L10.3026 11.6833ZM13.6196 7.40547C13.6196 7.97614 13.1545 8.44223 12.5765 8.44223V9.44223C13.703 9.44223 14.6196 8.53228 14.6196 7.40547H13.6196ZM12.5765 8.44223C11.9985 8.44223 11.5334 7.97613 11.5334 7.40547H10.5334C10.5334 8.5323 11.4501 9.44223 12.5765 9.44223V8.44223ZM11.5334 7.40547C11.5334 6.83482 11.9985 6.3687 12.5765 6.3687V5.3687C11.4501 5.3687 10.5334 6.27866 10.5334 7.40547H11.5334ZM12.5765 6.3687C13.1545 6.3687 13.6196 6.8348 13.6196 7.40547H14.6196C14.6196 6.27867 13.703 5.3687 12.5765 5.3687V6.3687Z" fill="currentColor"/>
</svg>
