<svg width="20" height="20" viewBox="0 0 20 20" fill="none" xmlns="http://www.w3.org/2000/svg">
<path d="M10 11V14M5.7998 8.6V7.2C5.7998 4.8804 7.68021 3 9.9998 3C12.3194 3 14.1998 4.8804 14.1998 7.2V8.6M3 12.7999C3 10.82 3 9.83009 3.61508 9.215C4.23015 8.59991 5.2201 8.59991 7.2 8.59991H12.8C14.7799 8.59991 15.7698 8.59991 16.3849 9.215C17 9.83009 17 10.82 17 12.7999C17 14.7798 17 15.7697 16.3849 16.3848C15.7698 16.9999 14.7799 16.9999 12.8 16.9999H7.2C5.2201 16.9999 4.23015 16.9999 3.61508 16.3848C3 15.7697 3 14.7798 3 12.7999Z" stroke="currentColor" stroke-linecap="round"/>
</svg>
