<svg width="20" height="20" viewBox="0 0 20 20" fill="none" xmlns="http://www.w3.org/2000/svg">
<path d="M3.8201 6.73223L3.48709 6.35926L3.48709 6.35926L3.8201 6.73223ZM16.1799 6.73223L15.8469 7.10519L15.8469 7.1052L16.1799 6.73223ZM16.1799 15.2678L15.8469 14.8948L15.8469 14.8948L16.1799 15.2678ZM3.8201 15.2678L4.15311 14.8948L4.1531 14.8948L3.8201 15.2678ZM12.5606 3.43934L12.2071 3.7929L12.2071 3.7929L12.5606 3.43934ZM7.43934 3.43934L7.79289 3.7929L7.7929 3.79289L7.43934 3.43934ZM6.5 6C6.5 5.72386 6.27614 5.5 6 5.5C5.72386 5.5 5.5 5.72386 5.5 6H6.5ZM5.5 16C5.5 16.2761 5.72386 16.5 6 16.5C6.27614 16.5 6.5 16.2761 6.5 16H5.5ZM14.5 6C14.5 5.72386 14.2761 5.5 14 5.5C13.7239 5.5 13.5 5.72386 13.5 6H14.5ZM13.5 16C13.5 16.2761 13.7239 16.5 14 16.5C14.2761 16.5 14.5 16.2761 14.5 16H13.5ZM3.5 11C3.5 9.80572 3.50133 8.96625 3.59694 8.33128C3.68943 7.71704 3.8608 7.36619 4.15311 7.1052L3.48709 6.35926C2.9593 6.83051 2.72062 7.43504 2.60809 8.18238C2.49867 8.90899 2.5 9.83728 2.5 11H3.5ZM4.15311 7.1052C4.45355 6.83695 4.87064 6.67399 5.58723 6.58796C6.31294 6.50085 7.26741 6.5 8.6 6.5V5.5C7.29272 5.5 6.26729 5.49915 5.46805 5.59509C4.65968 5.69213 4.00676 5.89528 3.48709 6.35926L4.15311 7.1052ZM8.6 6.5H11.4V5.5H8.6V6.5ZM11.4 6.5C12.7326 6.5 13.6871 6.50085 14.4128 6.58797C15.1294 6.67399 15.5465 6.83695 15.8469 7.10519L16.5129 6.35927C15.9933 5.89528 15.3403 5.69213 14.532 5.59509C13.7327 5.49915 12.7073 5.5 11.4 5.5V6.5ZM15.8469 7.1052C16.1392 7.3662 16.3106 7.71705 16.4031 8.33128C16.4987 8.96625 16.5 9.80572 16.5 11H17.5C17.5 9.83728 17.5013 8.90899 17.3919 8.18238C17.2794 7.43504 17.0407 6.8305 16.5129 6.35926L15.8469 7.1052ZM16.5 11C16.5 12.1943 16.4987 13.0338 16.4031 13.6687C16.3106 14.283 16.1392 14.6338 15.8469 14.8948L16.5129 15.6407C17.0407 15.1695 17.2794 14.565 17.3919 13.8176C17.5013 13.091 17.5 12.1627 17.5 11H16.5ZM15.8469 14.8948C15.5464 15.163 15.1294 15.326 14.4128 15.412C13.6871 15.4992 12.7326 15.5 11.4 15.5V16.5C12.7073 16.5 13.7327 16.5008 14.532 16.4049C15.3403 16.3079 15.9933 16.1047 16.5129 15.6407L15.8469 14.8948ZM11.4 15.5H8.6V16.5H11.4V15.5ZM8.6 15.5C7.26741 15.5 6.31294 15.4992 5.58723 15.412C4.87064 15.326 4.45355 15.163 4.15311 14.8948L3.48709 15.6407C4.00675 16.1047 4.65968 16.3079 5.46804 16.4049C6.26729 16.5008 7.29272 16.5 8.6 16.5V15.5ZM4.1531 14.8948C3.8608 14.6338 3.68943 14.283 3.59694 13.6687C3.50133 13.0338 3.5 12.1943 3.5 11H2.5C2.5 12.1627 2.49867 13.091 2.60809 13.8176C2.72062 14.565 2.9593 15.1695 3.4871 15.6407L4.1531 14.8948ZM13.5 6C13.5 5.30703 13.5011 4.737 13.4406 4.28747C13.3782 3.82355 13.2423 3.41384 12.9142 3.08578L12.2071 3.7929C12.3184 3.90418 12.4021 4.06769 12.4495 4.42072C12.4989 4.78813 12.5 5.27876 12.5 6H13.5ZM12.9142 3.08579C12.5861 2.75773 12.1764 2.62175 11.7125 2.55938C11.263 2.49894 10.693 2.5 10 2.5V3.5C10.7212 3.5 11.2119 3.50106 11.5793 3.55046C11.9323 3.59792 12.0958 3.68161 12.2071 3.7929L12.9142 3.08579ZM10 2.5C9.30703 2.5 8.73701 2.49894 8.28747 2.55938C7.82356 2.62175 7.41384 2.75773 7.08579 3.08579L7.7929 3.79289C7.90418 3.68161 8.06769 3.59792 8.42072 3.55046C8.78813 3.50106 9.27877 3.5 10 3.5V2.5ZM7.08579 3.08579C6.75773 3.41384 6.62175 3.82355 6.55938 4.28747C6.49894 4.737 6.5 5.30703 6.5 6H7.5C7.5 5.27876 7.50106 4.78813 7.55046 4.42072C7.59792 4.06769 7.68161 3.90418 7.79289 3.7929L7.08579 3.08579ZM5.5 6V16H6.5V6H5.5ZM13.5 6V16H14.5V6H13.5Z" fill="#21232A"/>
</svg>
