<svg width="20" height="20" viewBox="0 0 20 20" fill="none" xmlns="http://www.w3.org/2000/svg">
<path d="M11.4026 4.5H8.59742C5.95267 4.5 4.6303 4.5 3.80868 5.30545C3.19363 5.9084 3.03899 6.78643 3.00011 8.27743C2.99513 8.46858 3.15485 8.62134 3.34353 8.66983C3.94552 8.82444 4.38965 9.36138 4.38965 10C4.38965 10.6386 3.94552 11.1756 3.34353 11.3302C3.15485 11.3786 2.99513 11.5314 3.00011 11.7226C3.03899 13.2136 3.19363 14.0916 3.80868 14.6945C4.6303 15.5 5.95267 15.5 8.59742 15.5H11.4026C14.0473 15.5 15.3697 15.5 16.1914 14.6945C16.8064 14.0916 16.961 13.2136 16.9999 11.7226C17.0049 11.5314 16.8452 11.3786 16.6565 11.3302C16.0545 11.1756 15.6104 10.6386 15.6104 10C15.6104 9.36138 16.0545 8.82444 16.6565 8.66983C16.8452 8.62134 17.0049 8.46858 16.9999 8.27743C16.961 6.78643 16.8064 5.9084 16.1914 5.30545C15.3697 4.5 14.0473 4.5 11.4026 4.5Z" stroke="#21232A"/>
<path d="M9.28824 8.35208C9.6049 7.78403 9.76324 7.5 9.99999 7.5C10.2367 7.5 10.3951 7.78403 10.7117 8.35208L10.7936 8.49908C10.8836 8.6605 10.9286 8.74116 10.9987 8.79441C11.0689 8.84766 11.1562 8.8675 11.331 8.907L11.4901 8.943C12.105 9.08216 12.4125 9.15166 12.4856 9.38691C12.5588 9.62216 12.3491 9.86725 11.93 10.3575L11.8215 10.4843C11.7024 10.6236 11.6428 10.6932 11.616 10.7794C11.5892 10.8656 11.5982 10.9585 11.6162 11.1444L11.6326 11.3136C11.696 11.9677 11.7277 12.2947 11.5362 12.4401C11.3446 12.5854 11.0568 12.4529 10.4811 12.1878L10.3322 12.1192C10.1685 12.0439 10.0867 12.0062 9.99999 12.0062C9.91324 12.0062 9.83149 12.0439 9.66782 12.1192L9.51891 12.1878C8.94316 12.4529 8.65533 12.5854 8.46374 12.4401C8.27228 12.2947 8.30396 11.9677 8.36733 11.3136L8.38374 11.1444C8.40174 10.9585 8.41074 10.8656 8.38399 10.7794C8.35716 10.6932 8.2976 10.6236 8.17848 10.4843L8.07002 10.3575C7.6508 9.86725 7.44121 9.62216 7.51436 9.38691C7.58751 9.15166 7.89496 9.08216 8.50991 8.943L8.66899 8.907C8.84374 8.8675 8.93107 8.84766 9.00124 8.79441C9.07141 8.74116 9.11641 8.6605 9.20632 8.49908L9.28824 8.35208Z" stroke="#21232A"/>
</svg>
