<svg width="20" height="20" viewBox="0 0 20 20" fill="none" xmlns="http://www.w3.org/2000/svg">
<path d="M16.5 10.025C16.4865 13.6034 13.5815 16.5 10 16.5C6.41015 16.5 3.5 13.5899 3.5 10C3.5 6.4185 6.39663 3.51354 9.97497 3.50005C9.97821 3.50846 9.98177 3.51999 9.98474 3.5352C9.99347 3.57993 9.99248 3.63625 9.97762 3.69146C9.96294 3.74602 9.93862 3.78567 9.91402 3.81045C9.11781 4.61208 8.625 5.71772 8.625 6.9375C8.625 9.38826 10.6117 11.375 13.0625 11.375C14.2823 11.375 15.3879 10.8822 16.1896 10.086C16.2143 10.0614 16.254 10.0371 16.3085 10.0224C16.3637 10.0075 16.4201 10.0065 16.4648 10.0153C16.48 10.0182 16.4915 10.0218 16.5 10.025Z" stroke="currentColor" stroke-linejoin="round"/>
</svg>
