<svg width="20" height="20" viewBox="0 0 20 20" fill="none" xmlns="http://www.w3.org/2000/svg">
<path d="M3 10C3 7.64298 3 6.46447 3.8201 5.73223C4.64021 5 5.96013 5 8.6 5H11.4C14.0398 5 15.3598 5 16.1799 5.73223C17 6.46447 17 7.64298 17 10C17 12.357 17 13.5356 16.1799 14.2677C15.3598 15 14.0398 15 11.4 15H8.6C5.96013 15 4.64021 15 3.8201 14.2677C3 13.5356 3 12.357 3 10Z" stroke="currentColor"/>
<path d="M7.49148 9.75C7.49148 10.1642 7.1576 10.5 6.74574 10.5C6.33388 10.5 6 10.1642 6 9.75C6 9.33579 6.33388 9 6.74574 9C7.1576 9 7.49148 9.33579 7.49148 9.75Z" fill="currentColor"/>
<path d="M10.4852 9.75C10.4852 10.1642 10.1514 10.5 9.73951 10.5C9.32765 10.5 8.99377 10.1642 8.99377 9.75C8.99377 9.33579 9.32765 9 9.73951 9C10.1514 9 10.4852 9.33579 10.4852 9.75Z" fill="currentColor"/>
<path d="M13.5 9.75C13.5 10.1642 13.1661 10.5 12.7543 10.5C12.3424 10.5 12.0085 10.1642 12.0085 9.75C12.0085 9.33579 12.3424 9 12.7543 9C13.1661 9 13.5 9.33579 13.5 9.75Z" fill="currentColor"/>
</svg>
