<svg width="20" height="20" viewBox="0 0 20 20" fill="none" xmlns="http://www.w3.org/2000/svg">
<path d="M5.89844 5.01696C6.4318 5.50267 7.53055 6.83029 7.65856 8.25504C7.77821 9.58677 8.65722 10.669 10 10.6836C10.516 10.6892 11.0379 10.3164 11.0366 9.80039C11.0362 9.64077 11.0099 9.4776 10.9687 9.32755C10.9113 9.11871 10.9062 8.87856 11.0254 8.63281C11.4423 7.77322 12.2623 7.54232 12.912 7.07549C13.2002 6.86844 13.463 6.65003 13.579 6.4741C13.899 5.98838 14.219 5.01696 14.059 4.53125M16.8359 10.6836C16.6108 11.32 16.4514 12.9907 13.9089 13.0172C13.9089 13.0172 11.6574 13.0172 10.982 14.2902C10.4416 15.3084 10.7568 16.4116 10.982 16.8359M3 10C3 11.8565 3.7375 13.637 5.05025 14.9497C6.36301 16.2625 8.14348 17 10 17C11.8565 17 13.637 16.2625 14.9497 14.9497C16.2625 13.637 17 11.8565 17 10C17 8.14348 16.2625 6.36301 14.9497 5.05025C13.637 3.7375 11.8565 3 10 3C8.14348 3 6.36301 3.7375 5.05025 5.05025C3.7375 6.36301 3 8.14348 3 10Z" stroke="currentColor"/>
</svg>
