<svg width="20" height="20" viewBox="0 0 20 20" fill="none" xmlns="http://www.w3.org/2000/svg">
<path d="M11 14.5C10.7239 14.5 10.5 14.7239 10.5 15C10.5 15.2761 10.7239 15.5 11 15.5V14.5ZM16 15L16.3374 15.369C16.441 15.2743 16.5 15.1404 16.5 15C16.5 14.8596 16.441 14.7257 16.3374 14.631L16 15ZM14.1499 12.631C13.9461 12.4447 13.6298 12.4588 13.4435 12.6626C13.2572 12.8664 13.2713 13.1827 13.4751 13.369L14.1499 12.631ZM13.4751 16.631C13.2713 16.8173 13.2572 17.1336 13.4435 17.3374C13.6298 17.5412 13.9461 17.5553 14.1499 17.369L13.4751 16.631ZM15.5 11.5C15.5 11.7761 15.7239 12 16 12C16.2761 12 16.5 11.7761 16.5 11.5H15.5ZM9.5 17.5001C9.77614 17.5001 10 17.2763 10 17.0001C10 16.724 9.77614 16.5001 9.5 16.5001V17.5001ZM15.5185 8.03838L15.8981 7.71298L15.5185 8.03838ZM11.7986 3.69853L12.1783 3.37313V3.37313L11.7986 3.69853ZM11 15.5H16V14.5H11V15.5ZM16.3374 14.631L14.1499 12.631L13.4751 13.369L15.6626 15.369L16.3374 14.631ZM15.6626 14.631L13.4751 16.631L14.1499 17.369L16.3374 15.369L15.6626 14.631ZM15.5 9.33996V11.5H16.5V9.33996H15.5ZM9.5 16.5001H8.2V17.5001H9.5V16.5001ZM8.2 16.5001C6.76807 16.5001 5.89356 16.166 5.35463 15.5372C4.79858 14.8885 4.5 13.815 4.5 12.1001H3.5C3.5 13.8853 3.80142 15.2617 4.59537 16.188C5.40644 17.1343 6.63193 17.5001 8.2 17.5001V16.5001ZM4.5 12.1001V7.90011H3.5V12.1001H4.5ZM4.5 7.90011C4.5 6.18526 4.79858 5.11173 5.35463 4.46301C5.89356 3.83426 6.76807 3.50011 8.2 3.50011V2.50011C6.63193 2.50011 5.40644 2.86596 4.59537 3.81222C3.80142 4.7385 3.5 6.11496 3.5 7.90011H4.5ZM8.2 3.50011H10.2801V2.50011H8.2V3.50011ZM15.8981 7.71298L12.1783 3.37313L11.419 4.02392L15.1389 8.36377L15.8981 7.71298ZM10.2801 3.50011C10.4142 3.50011 10.5461 3.51804 10.6729 3.55244L10.9348 2.58735C10.7235 2.52999 10.5035 2.50011 10.2801 2.50011V3.50011ZM10.6729 3.55244C10.9605 3.63047 11.2213 3.79324 11.419 4.02392L12.1783 3.37313C11.8487 2.98859 11.4139 2.71735 10.9348 2.58735L10.6729 3.55244ZM16.5 9.33996C16.5 9.22321 16.4918 9.1072 16.4758 8.99271L15.4855 9.13161C15.4951 9.20028 15.5 9.26989 15.5 9.33996H16.5ZM16.4758 8.99271C16.4098 8.52211 16.2105 8.07744 15.8981 7.71298L15.1389 8.36377C15.3263 8.58244 15.4459 8.84924 15.4855 9.13161L16.4758 8.99271ZM16 8.56216H15.9806V9.56216H16V8.56216ZM15.9806 8.56216H12.9689V9.56216H15.9806V8.56216ZM12.9689 8.56216C12.2044 8.56216 11.8551 8.40595 11.6616 8.17374C11.4447 7.91342 11.3039 7.42402 11.3039 6.46409H10.3039C10.3039 7.45271 10.4337 8.26234 10.8934 8.81392C11.3764 9.39361 12.1097 9.56216 12.9689 9.56216V8.56216ZM11.3039 6.46409V3.06989H10.3039V6.46409H11.3039ZM11.3039 3.06989V3H10.3039V3.06989H11.3039Z" fill="currentColor"/>
</svg>
