<svg width="20" height="20" viewBox="0 0 20 20" fill="none" xmlns="http://www.w3.org/2000/svg">
<path d="M3.52174 9.50168C3.52174 9.77782 3.7456 10.0017 4.02174 10.0017C4.29788 10.0017 4.52174 9.77782 4.52174 9.50168H3.52174ZM14.6964 6.36091C14.8559 6.58635 15.1679 6.63981 15.3934 6.48033C15.6188 6.32085 15.6723 6.00882 15.5128 5.78338L14.6964 6.36091ZM5.92543 8.85297C6.12206 8.65909 6.1243 8.34252 5.93042 8.14588C5.73654 7.94925 5.41996 7.94701 5.22333 8.14089L5.92543 8.85297ZM4.03719 10.0126L3.68614 10.3686C3.88081 10.5606 4.19356 10.5606 4.38824 10.3686L4.03719 10.0126ZM2.85105 8.14089C2.65442 7.94701 2.33784 7.94925 2.14396 8.14588C1.95008 8.34252 1.95231 8.65909 2.14895 8.85297L2.85105 8.14089ZM16.4742 10.4983C16.4742 10.2222 16.2503 9.99832 15.9742 9.99832C15.698 9.99832 15.4742 10.2222 15.4742 10.4983H16.4742ZM5.29948 13.6391C5.14 13.4137 4.82797 13.3602 4.60253 13.5197C4.3771 13.6791 4.32363 13.9912 4.48311 14.2166L5.29948 13.6391ZM14.0746 11.1468C13.8779 11.3407 13.8757 11.6573 14.0696 11.8539C14.2635 12.0506 14.58 12.0528 14.7767 11.8589L14.0746 11.1468ZM15.9628 9.98723L16.3139 9.63119C16.1192 9.43924 15.8064 9.43924 15.6118 9.63119L15.9628 9.98723ZM17.1489 11.8589C17.3456 12.0528 17.6622 12.0506 17.856 11.8539C18.0499 11.6573 18.0477 11.3407 17.8511 11.1468L17.1489 11.8589ZM4.52174 9.50168C4.52174 6.46981 7.01643 4 10.1087 4V3C6.47749 3 3.52174 5.90427 3.52174 9.50168H4.52174ZM10.1087 4C12.0099 4 13.6873 4.9344 14.6964 6.36091L15.5128 5.78338C14.3221 4.1002 12.3445 3 10.1087 3V4ZM5.22333 8.14089L3.68614 9.65655L4.38824 10.3686L5.92543 8.85297L5.22333 8.14089ZM4.38824 9.65655L2.85105 8.14089L2.14895 8.85297L3.68614 10.3686L4.38824 9.65655ZM15.4742 10.4983C15.4742 13.5302 12.9795 16 9.88722 16V17C13.5184 17 16.4742 14.0957 16.4742 10.4983H15.4742ZM9.88722 16C7.98603 16 6.30864 15.0656 5.29948 13.6391L4.48311 14.2166C5.67385 15.8998 7.65145 17 9.88722 17V16ZM14.7767 11.8589L16.3139 10.3433L15.6118 9.63119L14.0746 11.1468L14.7767 11.8589ZM15.6118 10.3433L17.1489 11.8589L17.8511 11.1468L16.3139 9.63119L15.6118 10.3433Z" fill="currentColor"/>
</svg>
