<svg width="20" height="20" viewBox="0 0 20 20" fill="none" xmlns="http://www.w3.org/2000/svg">
<path d="M10 6V14M12 8.5C12 7.67157 11.1046 7 10 7C8.8954 7 8 7.67157 8 8.5C8 9.32842 8.8954 10 10 10C11.1046 10 12 10.6716 12 11.5C12 12.3284 11.1046 13 10 13C8.8954 13 8 12.3284 8 11.5M3 10C3 11.8565 3.7375 13.637 5.05025 14.9497C6.36301 16.2625 8.14348 17 10 17C11.8565 17 13.637 16.2625 14.9497 14.9497C16.2625 13.637 17 11.8565 17 10C17 8.14348 16.2625 6.36301 14.9497 5.05025C13.637 3.7375 11.8565 3 10 3C8.14348 3 6.36301 3.7375 5.05025 5.05025C3.7375 6.36301 3 8.14348 3 10Z" stroke="#21232A" stroke-linecap="round"/>
</svg>
