<svg width="20" height="20" viewBox="0 0 20 20" fill="none" xmlns="http://www.w3.org/2000/svg">
<path d="M15.8553 16.3554C16.0516 16.5496 16.3681 16.548 16.5624 16.3517C16.7566 16.1555 16.755 15.8389 16.5588 15.6446L15.8553 16.3554ZM14.7946 9.48729C14.7946 12.2369 12.5413 14.4746 9.75082 14.4746V15.4746C13.0839 15.4746 15.7946 12.7988 15.7946 9.48729H14.7946ZM9.75082 14.4746C6.96037 14.4746 4.70703 12.2369 4.70703 9.48729H3.70703C3.70703 12.7988 6.41777 15.4746 9.75082 15.4746V14.4746ZM4.70703 9.48729C4.70703 6.7377 6.96037 4.5 9.75082 4.5V3.5C6.41777 3.5 3.70703 6.17579 3.70703 9.48729H4.70703ZM9.75082 4.5C12.5413 4.5 14.7946 6.7377 14.7946 9.48729H15.7946C15.7946 6.17579 13.0839 3.5 9.75082 3.5V4.5ZM12.8785 13.4089L15.8553 16.3554L16.5588 15.6446L13.582 12.6982L12.8785 13.4089Z" fill="currentColor"/>
</svg>
