<svg width="20" height="20" viewBox="0 0 20 20" fill="none" xmlns="http://www.w3.org/2000/svg">
<path d="M7.90002 10C7.90002 10.557 8.12127 11.0911 8.5151 11.4849C8.90892 11.8788 9.44307 12.1 10 12.1C10.557 12.1 11.0911 11.8788 11.4849 11.4849C11.8788 11.0911 12.1 10.557 12.1 10C12.1 9.44305 11.8788 8.9089 11.4849 8.51508C11.0911 8.12125 10.557 7.9 10 7.9C9.44307 7.9 8.90892 8.12125 8.5151 8.51508C8.12127 8.9089 7.90002 9.44305 7.90002 10Z" stroke="currentColor"/>
<path d="M11.2358 3.10657C10.9785 3 10.6524 3 10 3C9.34769 3 9.02156 3 8.76424 3.10657C8.42122 3.24866 8.14868 3.52121 8.00658 3.86424C7.94172 4.02084 7.91633 4.20295 7.9064 4.46859C7.8918 4.85898 7.6916 5.22032 7.35328 5.41565C7.01497 5.61097 6.60194 5.60368 6.25656 5.42113C6.02154 5.29691 5.85113 5.22783 5.68308 5.20571C5.31495 5.15725 4.94265 5.257 4.64807 5.48304C4.42714 5.65257 4.26406 5.93503 3.9379 6.49995C3.61175 7.06488 3.44867 7.34734 3.41232 7.62344C3.36385 7.99156 3.46361 8.36386 3.68965 8.65845C3.79281 8.79292 3.93781 8.9059 4.16286 9.0473C4.49368 9.2552 4.70655 9.60933 4.70652 10C4.7065 10.3907 4.49365 10.7447 4.16285 10.9526C3.93778 11.094 3.79276 11.2071 3.68958 11.3416C3.46354 11.6361 3.36378 12.0084 3.41225 12.3765C3.4486 12.6526 3.61168 12.9351 3.93783 13.5C4.264 14.0649 4.42708 14.3474 4.648 14.5169C4.94258 14.7429 5.31488 14.8427 5.68301 14.7942C5.85105 14.7721 6.02145 14.703 6.25645 14.5788C6.60185 14.3963 7.01491 14.389 7.35325 14.5843C7.69159 14.7797 7.8918 15.141 7.9064 15.5315C7.91634 15.7971 7.94172 15.9792 8.00658 16.1358C8.14868 16.4788 8.42122 16.7514 8.76424 16.8935C9.02156 17 9.34769 17 10 17C10.6524 17 10.9785 17 11.2358 16.8935C11.5788 16.7514 11.8514 16.4788 11.9934 16.1358C12.0583 15.9792 12.0837 15.7971 12.0937 15.5314C12.1082 15.141 12.3084 14.7797 12.6467 14.5843C12.985 14.3889 13.3981 14.3963 13.7436 14.5788C13.9785 14.703 14.1489 14.772 14.3169 14.7942C14.6851 14.8427 15.0574 14.7429 15.3519 14.5169C15.5729 14.3474 15.736 14.0649 16.0621 13.4999C16.3883 12.935 16.5514 12.6526 16.5877 12.3765C16.6362 12.0084 16.5364 11.636 16.3104 11.3415C16.2072 11.207 16.0622 11.094 15.8371 10.9526C15.5064 10.7447 15.2935 10.3906 15.2935 9.99993C15.2935 9.60926 15.5064 9.25527 15.8371 9.04744C16.0622 8.90597 16.2073 8.79299 16.3105 8.65845C16.5365 8.36391 16.6362 7.99161 16.5878 7.62348C16.5515 7.34739 16.3884 7.06492 16.0622 6.5C15.736 5.93508 15.5729 5.65262 15.352 5.48309C15.0575 5.25705 14.6851 5.1573 14.317 5.20576C14.149 5.22788 13.9786 5.29695 13.7436 5.42116C13.3982 5.60371 12.9851 5.61101 12.6468 5.41567C12.3084 5.22034 12.1082 4.85896 12.0937 4.46856C12.0837 4.20294 12.0583 4.02083 11.9934 3.86424C11.8514 3.52121 11.5788 3.24866 11.2358 3.10657Z" stroke="currentColor"/>
</svg>
