<svg width="20" height="20" viewBox="0 0 20 20" fill="none" xmlns="http://www.w3.org/2000/svg">
<path d="M16.9991 11.3029C17.0015 11.0267 16.7795 10.801 16.5034 10.7987C16.2273 10.7963 16.0015 11.0183 15.9992 11.2944L16.9991 11.3029ZM15.5505 15.5479L15.904 15.9014L15.9041 15.9014L15.5505 15.5479ZM4.45209 15.5479L4.09852 15.9014L4.09853 15.9014L4.45209 15.5479ZM4.45209 4.44876L4.80566 4.8023L4.80566 4.8023L4.45209 4.44876ZM8.70527 3.99998C8.9814 3.99764 9.20335 3.77189 9.20101 3.49576C9.19867 3.21963 8.97292 2.99768 8.69679 3.00002L8.70527 3.99998ZM16.5 6.35714L16.8536 6.7107C17.0488 6.51543 17.0488 6.19885 16.8536 6.00359L16.5 6.35714ZM10.0317 7.10017L9.67725 6.74747L9.67721 6.74751L10.0317 7.10017ZM9.92331 7.20904L10.276 7.56351L10.2777 7.56179L9.92331 7.20904ZM9.81446 7.31738L10.1671 7.6718L10.1672 7.67173L9.81446 7.31738ZM8.57143 10.9286C8.57143 11.2047 8.79529 11.4286 9.07143 11.4286C9.34757 11.4286 9.57143 11.2047 9.57143 10.9286H8.57143ZM13.9964 3.14645C13.8011 2.95118 13.4846 2.95118 13.2893 3.14645C13.094 3.34171 13.094 3.65829 13.2893 3.85355L13.9964 3.14645ZM13.2893 8.86073C13.094 9.05599 13.094 9.37258 13.2893 9.56784C13.4846 9.7631 13.8011 9.7631 13.9964 9.56784L13.2893 8.86073ZM15.9992 11.2944C15.9898 12.4057 15.9536 13.2236 15.8296 13.8568C15.7083 14.476 15.5096 14.8816 15.1969 15.1944L15.9041 15.9014C16.398 15.4074 16.6643 14.7979 16.8109 14.049C16.9549 13.314 16.9898 12.4107 16.9991 11.3029L15.9992 11.2944ZM15.1969 15.1943C14.8292 15.562 14.3312 15.7739 13.5015 15.8854C12.6573 15.9989 11.5478 16 10.0013 16V17C11.5195 17 12.7085 17.0011 13.6347 16.8765C14.5754 16.7501 15.3196 16.4859 15.904 15.9014L15.1969 15.1943ZM10.0013 16C8.45477 16 7.3452 15.9989 6.50107 15.8854C5.67132 15.7739 5.17331 15.562 4.80565 15.1943L4.09853 15.9014C4.68296 16.4859 5.42717 16.7501 6.36781 16.8765C7.29407 17.0011 8.48304 17 10.0013 17V16ZM4.80566 15.1943C4.43799 14.8266 4.22611 14.3286 4.11455 13.4988C4.00106 12.6546 4 11.5449 4 9.99831H3C3 11.5166 2.99894 12.7057 3.12347 13.632C3.24993 14.5727 3.5141 15.3169 4.09852 15.9014L4.80566 15.1943ZM4 9.99831C4 8.45171 4.00106 7.34206 4.11455 6.49786C4.22611 5.66805 4.43799 5.16999 4.80566 4.8023L4.09853 4.09522C3.5141 4.67968 3.24993 5.42393 3.12347 6.36462C2.99894 7.29093 3 8.47998 3 9.99831H4ZM4.80566 4.8023C5.11838 4.48955 5.5239 4.29087 6.14307 4.16958C6.7762 4.04556 7.59405 4.00941 8.70527 3.99998L8.69679 3.00002C7.58903 3.00941 6.68575 3.04427 5.95083 3.18823C5.20195 3.33493 4.59249 3.60122 4.09852 4.09522L4.80566 4.8023ZM16.5 5.85714H11.9286V6.85714H16.5V5.85714ZM11.9286 5.85714C10.7125 5.85714 9.96644 6.45688 9.67725 6.74747L10.3861 7.45286C10.5612 7.27686 11.0674 6.85714 11.9286 6.85714V5.85714ZM9.67721 6.74751C9.64128 6.78362 9.61421 6.81082 9.59613 6.82899C9.58708 6.83808 9.58029 6.84491 9.57576 6.84946C9.57349 6.85174 9.57179 6.85345 9.57065 6.85459C9.57009 6.85516 9.56966 6.85558 9.56938 6.85587C9.56924 6.85601 9.56913 6.85611 9.56906 6.85619C9.56903 6.85622 9.569 6.85625 9.56898 6.85626C9.56898 6.85627 9.56897 6.85628 9.56896 6.85628C9.56896 6.85629 9.56896 6.85629 9.56896 6.85629C9.56896 6.85629 9.56896 6.85629 9.56896 6.85629C9.56896 6.85629 9.56896 6.85629 9.92331 7.20904C10.2777 7.56179 10.2777 7.56179 10.2777 7.56179C10.2777 7.56179 10.2777 7.56179 10.2777 7.56179C10.2777 7.56179 10.2777 7.56178 10.2777 7.56178C10.2777 7.56178 10.2777 7.56177 10.2777 7.56176C10.2777 7.56174 10.2777 7.56172 10.2778 7.56168C10.2779 7.56161 10.278 7.5615 10.2781 7.56136C10.2784 7.56107 10.2788 7.56064 10.2794 7.56006C10.2805 7.55892 10.2822 7.5572 10.2845 7.55491C10.2891 7.55034 10.2959 7.5435 10.3049 7.5344C10.323 7.5162 10.3501 7.48896 10.3861 7.45282L9.67721 6.74751ZM9.92331 7.20904C9.57068 6.85457 9.57067 6.85457 9.57067 6.85457C9.57067 6.85457 9.57067 6.85458 9.57067 6.85458C9.57067 6.85458 9.57067 6.85458 9.57067 6.85458C9.57066 6.85459 9.57066 6.85459 9.57065 6.8546C9.57063 6.85462 9.5706 6.85465 9.57056 6.85468C9.57049 6.85476 9.57038 6.85486 9.57024 6.85501C9.56995 6.85529 9.56952 6.85572 9.56895 6.85629C9.5678 6.85744 9.56608 6.85914 9.5638 6.86142C9.55922 6.86597 9.55238 6.87278 9.54328 6.88184C9.52507 6.89996 9.49784 6.92706 9.4617 6.96303L10.1672 7.67173C10.2033 7.6358 10.2305 7.60874 10.2487 7.59066C10.2578 7.58162 10.2646 7.57482 10.2691 7.57029C10.2714 7.56803 10.2731 7.56633 10.2743 7.5652C10.2748 7.56463 10.2752 7.56421 10.2755 7.56392C10.2757 7.56378 10.2758 7.56368 10.2758 7.56361C10.2759 7.56357 10.2759 7.56355 10.2759 7.56353C10.2759 7.56352 10.2759 7.56352 10.2759 7.56351C10.2759 7.56351 10.276 7.56351 10.276 7.56351C10.276 7.56351 10.276 7.56351 10.276 7.56351C10.276 7.56351 10.276 7.56351 9.92331 7.20904ZM9.46177 6.96297C9.17116 7.25216 8.57143 7.99822 8.57143 9.21429H9.57143C9.57143 8.3531 9.99115 7.84694 10.1671 7.6718L9.46177 6.96297ZM8.57143 9.21429V10.9286H9.57143V9.21429H8.57143ZM16.8536 6.00359L13.9964 3.14645L13.2893 3.85355L16.1464 6.7107L16.8536 6.00359ZM16.1464 6.00359L13.2893 8.86073L13.9964 9.56784L16.8536 6.7107L16.1464 6.00359Z" fill="currentColor"/>
</svg>
