<svg width="20" height="20" viewBox="0 0 20 20" fill="none" xmlns="http://www.w3.org/2000/svg">
<path d="M3.044 10.2437C2.98566 10.0865 2.98566 9.91366 3.044 9.7565C3.61216 8.37887 4.57658 7.20096 5.81499 6.3721C7.05341 5.54325 8.51005 5.10077 10.0002 5.10077C11.4904 5.10077 12.9471 5.54325 14.1855 6.3721C15.4239 7.20096 16.3883 8.37887 16.9565 9.7565C17.0148 9.91366 17.0148 10.0865 16.9565 10.2437C16.3883 11.6213 15.4239 12.7992 14.1855 13.6281C12.9471 14.4569 11.4904 14.8994 10.0002 14.8994C8.51005 14.8994 7.05341 14.4569 5.81499 13.6281C4.57658 12.7992 3.61216 11.6213 3.044 10.2437Z" stroke="currentColor" stroke-linecap="round" stroke-linejoin="round"/>
<path d="M10.0002 12.1C11.16 12.1 12.1001 11.1598 12.1001 10.0001C12.1001 8.84035 11.16 7.9002 10.0002 7.9002C8.8405 7.9002 7.90035 8.84035 7.90035 10.0001C7.90035 11.1598 8.8405 12.1 10.0002 12.1Z" stroke="currentColor" stroke-linecap="round" stroke-linejoin="round"/>
</svg>
