<svg width="20" height="20" viewBox="0 0 20 20" fill="none" xmlns="http://www.w3.org/2000/svg">
<path d="M14.9791 3.01141L14.9239 2.51447L14.9791 3.01141ZM16.9886 5.02092L17.4855 5.07614V5.07614L16.9886 5.02092ZM5.06668 9.23143L4.72954 8.86219L5.06668 9.23143ZM4.80615 11.3058L4.40632 11.606L4.80615 11.3058ZM10.7686 14.9333L10.3993 14.5962L10.7686 14.9333ZM8.6942 15.1939L8.39398 15.5937L8.6942 15.1939ZM15.5981 9.64387L15.9673 9.98101L15.5981 9.64387ZM16.7599 7.07885L16.263 7.02363L16.7599 7.07885ZM10.3561 4.40194L10.6933 4.77118L10.3561 4.40194ZM12.9212 3.24007L12.8659 2.74313V2.74313L12.9212 3.24007ZM6.5528 5.78038L6.77641 5.33316L6.5528 5.78038ZM3.26656 8.08772L3.62012 7.73417L3.26656 8.08772ZM3.44181 6.66418L3.69906 7.09292H3.69906L3.44181 6.66418ZM4.80279 5.84759L4.54554 5.41884H4.54554L4.80279 5.84759ZM11.9123 16.7334L11.5587 17.087H11.5587L11.9123 16.7334ZM13.3358 16.5582L12.9071 16.3009L13.3358 16.5582ZM14.1524 15.1972L14.5812 15.4545L14.1524 15.1972ZM8.90801 11.9599C9.10327 11.7647 9.10327 11.4481 8.90801 11.2528C8.71275 11.0576 8.39617 11.0576 8.2009 11.2528L8.90801 11.9599ZM5.14496 14.3088C4.9497 14.504 4.9497 14.8206 5.14496 15.0159C5.34022 15.2111 5.6568 15.2111 5.85206 15.0159L5.14496 14.3088ZM15.2288 9.30674L10.3993 14.5962L11.1378 15.2705L15.9673 9.98101L15.2288 9.30674ZM5.40381 9.60067L10.6933 4.77118L10.019 4.03269L4.72954 8.86219L5.40381 9.60067ZM12.9764 3.73701L15.0343 3.50836L14.9239 2.51447L12.8659 2.74313L12.9764 3.73701ZM16.4916 4.96571L16.263 7.02363L17.2569 7.13406L17.4855 5.07614L16.4916 4.96571ZM8.99443 14.794C8.47371 14.403 7.78494 13.8291 6.97794 13.0221L6.27083 13.7292C7.11149 14.5698 7.83595 15.1747 8.39398 15.5937L8.99443 14.794ZM6.97794 13.0221C6.17094 12.2151 5.59698 11.5263 5.20598 11.0056L4.40632 11.606C4.82533 12.164 5.43017 12.8885 6.27083 13.7292L6.97794 13.0221ZM15.0343 3.50836C15.8748 3.41496 16.585 4.12518 16.4916 4.96571L17.4855 5.07614C17.6497 3.5987 16.4013 2.35031 14.9239 2.51447L15.0343 3.50836ZM4.72954 8.86219C3.96854 9.55702 3.73962 10.7181 4.40632 11.606L5.20598 11.0056C4.8954 10.5919 4.96288 10.0033 5.40381 9.60067L4.72954 8.86219ZM10.3993 14.5962C9.99673 15.0371 9.40805 15.1046 8.99443 14.794L8.39398 15.5937C9.28186 16.2604 10.443 16.0315 11.1378 15.2705L10.3993 14.5962ZM15.9673 9.98101C16.6874 9.19229 17.1389 8.19555 17.2569 7.13406L16.263 7.02363C16.1684 7.87489 15.8063 8.67423 15.2288 9.30674L15.9673 9.98101ZM10.6933 4.77118C11.3258 4.19367 12.1251 3.8316 12.9764 3.73701L12.8659 2.74313C11.8045 2.86107 10.8077 3.31256 10.019 4.03269L10.6933 4.77118ZM13.0261 8.84024C12.5107 9.35561 11.6751 9.35561 11.1598 8.84024L10.4527 9.54735C11.3585 10.4532 12.8273 10.4532 13.7332 9.54735L13.0261 8.84024ZM11.1598 8.84024C10.6444 8.32487 10.6444 7.48929 11.1598 6.97392L10.4527 6.26681C9.54676 7.17271 9.54676 8.64145 10.4527 9.54735L11.1598 8.84024ZM11.1598 6.97392C11.6751 6.45855 12.5107 6.45855 13.0261 6.97392L13.7332 6.26681C12.8273 5.36092 11.3585 5.36092 10.4527 6.26681L11.1598 6.97392ZM13.0261 6.97392C13.5415 7.48929 13.5415 8.32487 13.0261 8.84024L13.7332 9.54735C14.6391 8.64145 14.6391 7.17271 13.7332 6.26681L13.0261 6.97392ZM6.3292 6.22759L8.00917 7.06758L8.45639 6.17315L6.77641 5.33316L6.3292 6.22759ZM5.36955 9.4836L3.62012 7.73417L2.91301 8.44127L4.66244 10.1907L5.36955 9.4836ZM3.69906 7.09292L5.06004 6.27633L4.54554 5.41884L3.18456 6.23543L3.69906 7.09292ZM3.62012 7.73417C3.43158 7.54563 3.47042 7.23011 3.69906 7.09292L3.18456 6.23543C2.39806 6.70733 2.26445 7.79271 2.91301 8.44127L3.62012 7.73417ZM6.77641 5.33316C6.06704 4.97848 5.22562 5.01079 4.54554 5.41884L5.06004 6.27633C5.44694 6.04419 5.92563 6.02581 6.3292 6.22759L6.77641 5.33316ZM14.6668 13.2236L13.8268 11.5436L12.9324 11.9908L13.7724 13.6708L14.6668 13.2236ZM9.8093 15.3376L11.5587 17.087L12.2658 16.3799L10.5164 14.6305L9.8093 15.3376ZM13.7646 16.8154L14.5812 15.4545L13.7237 14.94L12.9071 16.3009L13.7646 16.8154ZM11.5587 17.087C12.2073 17.7356 13.2927 17.6019 13.7646 16.8154L12.9071 16.3009C12.7699 16.5296 12.4544 16.5684 12.2658 16.3799L11.5587 17.087ZM13.7724 13.6708C13.9742 14.0744 13.9558 14.5531 13.7237 14.94L14.5812 15.4545C14.9892 14.7744 15.0215 13.933 14.6668 13.2236L13.7724 13.6708ZM8.2009 11.2528L5.14496 14.3088L5.85206 15.0159L8.90801 11.9599L8.2009 11.2528Z" fill="#21232A"/>
</svg>
