<svg width="20" height="20" viewBox="0 0 20 20" fill="none" xmlns="http://www.w3.org/2000/svg">
<path d="M14.0353 5.99561L14.0353 5.9956L13.999 5.90803L13.9613 5.99931C13.5932 6.88937 12.8862 7.59646 11.9961 7.96472L11.7572 7.38721L11.9961 7.96472L11.9071 8.00156L12.0008 8.04038C12.8891 8.40828 13.595 9.11378 13.9634 10.0019L14.001 10.0927L14.0401 9.99834L14.6175 10.2376L14.0401 9.99834C14.4082 9.10994 15.1141 8.40409 16.0026 8.03594L16.0931 7.99843L15.9993 7.95962C15.11 7.59145 14.4034 6.88493 14.0353 5.99561Z" fill="currentColor" stroke="currentColor" stroke-width="1.25"/>
<path d="M3 7H9M3 10.5H9M3 14H16" stroke="currentColor" stroke-linecap="round"/>
</svg>
