<svg width="20" height="20" viewBox="0 0 20 20" fill="none" xmlns="http://www.w3.org/2000/svg">
<path d="M9.99983 3V4.4M9.99983 15.6V17M4.39997 10H3M17 10H15.6M15.4447 4.55575L13.8894 5.97786M4.55599 4.55575L6.11136 5.97786M6.11152 13.8894L4.55599 15.4449M15.4447 15.4441L13.8894 13.8885M6.49991 10C6.49991 10.4596 6.59044 10.9148 6.76633 11.3394C6.94222 11.764 7.20002 12.1499 7.52502 12.4749C7.85001 12.7999 8.23584 13.0577 8.66047 13.2336C9.0851 13.4095 9.54021 13.5 9.99983 13.5C10.4594 13.5 10.9146 13.4095 11.3392 13.2336C11.7638 13.0577 12.1496 12.7999 12.4746 12.4749C12.7996 12.1499 13.0574 11.764 13.2333 11.3394C13.4092 10.9148 13.4997 10.4596 13.4997 10C13.4997 9.54037 13.4092 9.08525 13.2333 8.66061C13.0574 8.23597 12.7996 7.85013 12.4746 7.52513C12.1496 7.20012 11.7638 6.94231 11.3392 6.76642C10.9146 6.59053 10.4594 6.5 9.99983 6.5C9.54021 6.5 9.0851 6.59053 8.66047 6.76642C8.23584 6.94231 7.85001 7.20012 7.52502 7.52513C7.20002 7.85013 6.94222 8.23597 6.76633 8.66061C6.59044 9.08525 6.49991 9.54037 6.49991 10Z" stroke="currentColor" stroke-width="1.25" stroke-linecap="round"/>
</svg>
