<svg width="20" height="20" viewBox="0 0 20 20" fill="none" xmlns="http://www.w3.org/2000/svg">
<path d="M11.6674 8.85243L15.3853 15.3502C15.5505 15.639 15.344 16 15.0135 16H7.57776C7.24728 16 7.04073 15.639 7.20597 15.3502L10.9238 8.85243M11.6674 8.85243C11.5022 8.56364 11.0891 8.56364 10.9238 8.85243M11.6674 8.85243L13.8317 12.635L14.5454 12.8236C14.7667 12.8821 14.9941 12.7526 15.0534 12.5343L16.9858 5.4211C17.0451 5.20284 16.9137 4.97851 16.6925 4.92003L9.4808 3.01404C9.25953 2.95556 9.03209 3.08508 8.9728 3.30333L7.04044 10.4166M10.9238 8.85243L9.42581 11.4706M7.04044 10.4166C6.98115 10.6348 7.11246 10.8592 7.33373 10.9176L9.42581 11.4706M7.04044 10.4166L8.15794 6.30329C7.8346 6.22348 7.49623 6.18111 7.14782 6.18111C4.85704 6.18111 3 8.01281 3 10.2723C3 12.5318 4.85704 14.3635 7.14782 14.3635C7.36945 14.3635 7.58702 14.3464 7.79924 14.3134L9.42581 11.4706" stroke="currentColor"/>
</svg>
