<svg width="20" height="20" viewBox="0 0 20 20" fill="none" xmlns="http://www.w3.org/2000/svg">
<path d="M1.5 10.2751L2.46335 9.43213C2.96456 8.99362 3.71996 9.01875 4.19085 9.48964L6.55023 11.849C6.92816 12.227 7.52318 12.2785 7.96053 11.9711L8.12454 11.8559C8.75385 11.4136 9.60533 11.4649 10.1771 11.9794L11.95 13.5751M1.5 10C1.5 7.40724 1.5 6.11091 2.30543 5.30543C3.11091 4.5 4.40724 4.5 7 4.5C9.59271 4.5 10.8891 4.5 11.6945 5.30543C12.5 6.11091 12.5 7.40724 12.5 10C12.5 12.5927 12.5 13.8891 11.6945 14.6945C10.8891 15.5 9.59271 15.5 7 15.5C4.40724 15.5 3.11091 15.5 2.30543 14.6945C1.5 13.8891 1.5 12.5927 1.5 10ZM8.10131 7.80046C8.0995 8.64722 9.01504 9.17844 9.74927 8.75662C10.0915 8.55999 10.3022 8.19513 10.3013 7.80046C10.3031 6.95365 9.38758 6.42248 8.65335 6.8443C8.31111 7.04088 8.10046 7.40579 8.10131 7.80046Z" stroke="currentColor" stroke-linecap="round"/>
<path d="M18.5 6H14.5M17.5 10H14.5M16.5 14H14.5" stroke="currentColor" stroke-linecap="round"/>
</svg>
