<svg width="20" height="20" viewBox="0 0 20 20" fill="none" xmlns="http://www.w3.org/2000/svg">
<path d="M13.5 16.0531L13.2503 15.62L13.2503 15.62L13.5 16.0531ZM6.49997 3.94685L6.74968 4.38003L6.74969 4.38003L6.49997 3.94685ZM10.5 6.98962C10.5 6.71348 10.2761 6.48962 10 6.48962C9.72386 6.48962 9.5 6.71348 9.5 6.98962H10.5ZM10 9.99993H9.5C9.5 10.1321 9.55234 10.2589 9.64556 10.3526L10 9.99993ZM11.8741 12.5923C12.0689 12.788 12.3854 12.7888 12.5812 12.5941C12.7769 12.3993 12.7777 12.0827 12.583 11.887L11.8741 12.5923ZM2.5 10C2.5 15.7667 8.75081 19.3681 13.7497 16.4863L13.2503 15.62C8.91579 18.1187 3.5 14.9946 3.5 10H2.5ZM13.7497 16.4863C16.0702 15.1486 17.5 12.6761 17.5 10H16.5C16.5 12.3181 15.2615 14.4606 13.2503 15.62L13.7497 16.4863ZM17.5 10C17.5 4.23334 11.2492 0.631891 6.25025 3.51368L6.74969 4.38003C11.0842 1.88127 16.5 5.00544 16.5 10H17.5ZM6.25025 3.51367C3.92979 4.85136 2.5 7.32389 2.5 10H3.5C3.5 7.68186 4.73853 5.53941 6.74968 4.38003L6.25025 3.51367ZM9.5 6.98962V9.99993H10.5V6.98962H9.5ZM9.64556 10.3526L11.8741 12.5923L12.583 11.887L10.3544 9.64726L9.64556 10.3526Z" fill="currentColor"/>
</svg>
