<svg width="20" height="20" viewBox="0 0 20 20" fill="none" xmlns="http://www.w3.org/2000/svg">
<path fill-rule="evenodd" clip-rule="evenodd" d="M7.29961 4.5C7.57575 4.5 7.79961 4.72386 7.79961 5V9.49982L13.261 9.50021V5.00049C13.261 4.72434 13.4849 4.50049 13.761 4.50049C14.0372 4.50049 14.261 4.72434 14.261 5.00049V15C14.261 15.2761 14.0372 15.5 13.761 15.5C13.4849 15.5 13.261 15.2761 13.261 15V10.5002L7.79961 10.4998V14.9995C7.79961 15.2757 7.57575 15.4995 7.29961 15.4995C7.02347 15.4995 6.79961 15.2757 6.79961 14.9995V5C6.79961 4.72386 7.02347 4.5 7.29961 4.5ZM0.787922 7.04721C0.963615 6.96492 1.17105 6.99169 1.32009 7.11589L4.32009 9.61589C4.43409 9.71089 4.5 9.85161 4.5 10C4.5 10.1484 4.43409 10.2891 4.32009 10.3841L1.32009 12.8841C1.17105 13.0083 0.963615 13.0351 0.787922 12.9528C0.61223 12.8705 0.5 12.694 0.5 12.5V7.5C0.5 7.30599 0.61223 7.1295 0.787922 7.04721ZM18.1427 7.80432C18.3099 7.8898 18.4151 8.06173 18.4151 8.2495V14.4992H19.2996C19.5758 14.4992 19.7996 14.7231 19.7996 14.9992C19.7996 15.2753 19.5758 15.4992 19.2996 15.4992H16.5305C16.2544 15.4992 16.0305 15.2753 16.0305 14.9992C16.0305 14.7231 16.2544 14.4992 16.5305 14.4992H17.4151V9.22736L16.8232 9.65477C16.5994 9.81644 16.2868 9.76603 16.1252 9.54216C15.9635 9.31829 16.0139 9.00575 16.2378 8.84408L17.6223 7.84415C17.7745 7.73422 17.9755 7.71884 18.1427 7.80432Z" fill="currentColor"/>
</svg>
