<svg width="20" height="20" viewBox="0 0 20 20" fill="none" xmlns="http://www.w3.org/2000/svg">
<path fill-rule="evenodd" clip-rule="evenodd" d="M7.29961 4.5C7.57575 4.5 7.79961 4.72386 7.79961 5V9.49982L13.261 9.50021V5.00049C13.261 4.72434 13.4849 4.50049 13.761 4.50049C14.0372 4.50049 14.261 4.72434 14.261 5.00049V15C14.261 15.2761 14.0372 15.5 13.761 15.5C13.4849 15.5 13.261 15.2761 13.261 15V10.5002L7.79961 10.4998V14.9995C7.79961 15.2757 7.57575 15.4995 7.29961 15.4995C7.02347 15.4995 6.79961 15.2757 6.79961 14.9995V5C6.79961 4.72386 7.02347 4.5 7.29961 4.5ZM0.787922 7.04721C0.963615 6.96492 1.17105 6.99169 1.32009 7.11589L4.32009 9.61589C4.43409 9.71089 4.5 9.85161 4.5 10C4.5 10.1484 4.43409 10.2891 4.32009 10.3841L1.32009 12.8841C1.17105 13.0083 0.963615 13.0351 0.787922 12.9528C0.61223 12.8705 0.5 12.694 0.5 12.5V7.5C0.5 7.30599 0.61223 7.1295 0.787922 7.04721ZM15.9201 8.60959C16.3658 8.53739 16.8218 8.5 17.2857 8.5C17.5337 8.5 17.7795 8.51069 18.0226 8.53167C18.7337 8.59301 19.3158 9.14008 19.4267 9.87071C19.4749 10.1885 19.5 10.5144 19.5 10.8462C19.5 11.4992 19.1141 12.0449 18.599 12.3223L16.9478 13.2114C16.6859 13.3524 16.5 13.6553 16.5 14.0096V14.5H19C19.2761 14.5 19.5 14.7239 19.5 15C19.5 15.2761 19.2761 15.5 19 15.5H16C15.7239 15.5 15.5 15.2761 15.5 15V14.0096C15.5 13.3149 15.8644 12.659 16.4737 12.3309M16.4737 12.3309L18.1249 11.4419C18.3544 11.3183 18.5 11.0897 18.5 10.8462C18.5 10.5648 18.4788 10.2891 18.4381 10.0208C18.3949 9.73669 18.1773 9.54873 17.9366 9.52796C17.722 9.50945 17.5049 9.5 17.2857 9.5C16.8757 9.5 16.4731 9.53304 16.0799 9.59672C15.8074 9.64087 15.5506 9.45569 15.5064 9.1831C15.4623 8.91051 15.6475 8.65374 15.9201 8.60959" fill="currentColor"/>
</svg>
