<svg width="20" height="20" viewBox="0 0 20 20" fill="none" xmlns="http://www.w3.org/2000/svg">
<path fill-rule="evenodd" clip-rule="evenodd" d="M7.29961 4.5C7.57575 4.5 7.79961 4.72386 7.79961 5V9.49982L13.261 9.50021V5.00049C13.261 4.72434 13.4849 4.50049 13.761 4.50049C14.0372 4.50049 14.261 4.72434 14.261 5.00049V15C14.261 15.2761 14.0372 15.5 13.761 15.5C13.4849 15.5 13.261 15.2761 13.261 15V10.5002L7.79961 10.4998V14.9995C7.79961 15.2757 7.57575 15.4995 7.29961 15.4995C7.02347 15.4995 6.79961 15.2757 6.79961 14.9995V5C6.79961 4.72386 7.02347 4.5 7.29961 4.5ZM0.787922 7.04721C0.963615 6.96492 1.17105 6.99169 1.32009 7.11589L4.32009 9.61589C4.43409 9.71089 4.5 9.85161 4.5 10C4.5 10.1484 4.43409 10.2891 4.32009 10.3841L1.32009 12.8841C1.17105 13.0083 0.963615 13.0351 0.787922 12.9528C0.61223 12.8705 0.5 12.694 0.5 12.5V7.5C0.5 7.30599 0.61223 7.1295 0.787922 7.04721ZM15.92 8.60959C16.3657 8.53739 16.8218 8.5 17.2857 8.5C17.5698 8.5 17.8511 8.51403 18.1288 8.5415C18.7187 8.59984 19.2903 9.00857 19.4289 9.68211C19.4755 9.90881 19.5 10.144 19.5 10.3846C19.5 10.9699 19.3552 11.5219 19.0996 12C19.3552 12.4781 19.5 13.0301 19.5 13.6154C19.5 13.856 19.4755 14.0912 19.4289 14.3179C19.2903 14.9914 18.7187 15.4002 18.1289 15.4586C17.8511 15.486 17.5698 15.5 17.2857 15.5C16.8218 15.5 16.3657 15.4626 15.92 15.3904C15.6475 15.3463 15.4623 15.0895 15.5064 14.8169C15.5506 14.5443 15.8074 14.3591 16.08 14.4033C16.473 14.467 16.8756 14.5 17.2857 14.5C17.5369 14.5 17.7853 14.4876 18.0303 14.4634C18.2511 14.4416 18.4118 14.2988 18.4494 14.1165C18.4824 13.9558 18.5 13.7881 18.5 13.6154C18.5 13.2079 18.4022 12.8279 18.2327 12.5H16.8571C16.581 12.5 16.3571 12.2761 16.3571 12C16.3571 11.7239 16.581 11.5 16.8571 11.5H18.2327C18.4022 11.1721 18.5 10.7921 18.5 10.3846C18.5 10.2119 18.4824 10.0443 18.4494 9.88363C18.4119 9.70119 18.2511 9.55848 18.0304 9.53664C17.7853 9.5124 17.5369 9.5 17.2857 9.5C16.8757 9.5 16.473 9.53304 16.08 9.59672C15.8074 9.64088 15.5506 9.4557 15.5064 9.18311C15.4623 8.91052 15.6475 8.65375 15.92 8.60959Z" fill="currentColor"/>
</svg>
