<svg width="20" height="20" viewBox="0 0 20 20" fill="none" xmlns="http://www.w3.org/2000/svg">
<path d="M3 9.65623C3 7.39612 3 6.26603 3.63551 5.5054C3.7519 5.36614 3.88186 5.2385 4.02365 5.12418C4.79808 4.5 5.94868 4.5 8.24982 4.5C10.551 4.5 11.7016 4.5 12.476 5.12418C12.6178 5.2385 12.7477 5.36614 12.8641 5.5054C13.4997 6.26603 13.4997 7.39612 13.4997 9.65623V10.3438C13.4997 12.6039 13.4997 13.734 12.8641 14.4946C12.7477 14.6339 12.6178 14.7615 12.476 14.8758C11.7016 15.5 10.551 15.5 8.24982 15.5C5.94868 15.5 4.79808 15.5 4.02365 14.8758C3.88186 14.7615 3.7519 14.6339 3.63551 14.4946C3 13.734 3 12.6039 3 10.3438V9.65623Z" stroke="currentColor"/>
<path d="M13.5 8.28091L13.9608 8.0546C15.3228 7.38573 16.004 7.05127 16.5019 7.35356C16.9999 7.65578 16.9999 8.40364 16.9999 9.89937V10.1C16.9999 11.5957 16.9999 12.3435 16.5019 12.6458C16.004 12.9481 15.3228 12.6136 13.9608 11.9447L13.5 11.7184V8.28091Z" stroke="currentColor"/>
</svg>
