<svg width="20" height="20" viewBox="0 0 20 20" fill="none" xmlns="http://www.w3.org/2000/svg">
<path d="M2.31862 17.5C2.16679 17.5 2.02876 17.4618 1.90453 17.3854C1.78031 17.309 1.68369 17.2083 1.61467 17.0833C1.54566 16.9583 1.5077 16.8229 1.5008 16.6771C1.49389 16.5313 1.53185 16.3889 1.61467 16.25L9.27534 2.91667C9.35816 2.77778 9.46513 2.67361 9.59626 2.60417C9.72739 2.53472 9.86197 2.5 10 2.5C10.138 2.5 10.2726 2.53472 10.4037 2.60417C10.5349 2.67361 10.6418 2.77778 10.7247 2.91667L18.3853 16.25C18.4681 16.3889 18.5061 16.5313 18.4992 16.6771C18.4923 16.8229 18.4543 16.9583 18.3853 17.0833C18.3163 17.2083 18.2197 17.309 18.0955 17.3854C17.9712 17.4618 17.8332 17.5 17.6814 17.5H2.31862Z" fill="currentColor"/>
<path d="M10 7.5C9.44772 7.5 9 7.94772 9 8.5V11C9 11.5523 9.44772 12 10 12C10.5523 12 11 11.5523 11 11V8.5C11 7.94772 10.5523 7.5 10 7.5Z" fill="white"/>
<path d="M10 13C9.44772 13 9 13.4477 9 14C9 14.5523 9.44772 15 10 15C10.5523 15 11 14.5523 11 14C11 13.4477 10.5523 13 10 13Z" fill="white"/>
</svg>
