<svg width="20" height="20" viewBox="0 0 20 20" fill="none" xmlns="http://www.w3.org/2000/svg">
<path d="M6.46778 13.0804L6.32204 12.6021L6.32201 12.6022L6.46778 13.0804ZM8 6.5C7.72386 6.5 7.5 6.72386 7.5 7C7.5 7.27614 7.72386 7.5 8 7.5V6.5ZM13 7.5C13.2761 7.5 13.5 7.27614 13.5 7C13.5 6.72386 13.2761 6.5 13 6.5V7.5ZM8 9C7.72386 9 7.5 9.22386 7.5 9.5C7.5 9.77614 7.72386 10 8 10V9ZM11 10C11.2761 10 11.5 9.77614 11.5 9.5C11.5 9.22386 11.2761 9 11 9V10ZM5.5 7.2C5.5 6.19616 5.50102 5.49269 5.57121 4.96118C5.63961 4.44315 5.76554 4.16425 5.96082 3.96543L5.24737 3.26472C4.83855 3.68097 4.66243 4.20459 4.57981 4.83027C4.49898 5.44248 4.5 6.22394 4.5 7.2H5.5ZM5.96082 3.96543C6.15486 3.76786 6.42515 3.64133 6.92969 3.57226C7.44955 3.5011 8.13834 3.5 9.125 3.5V2.5C8.16711 2.5 7.3975 2.4989 6.79406 2.5815C6.17531 2.66621 5.65742 2.84722 5.24737 3.26472L5.96082 3.96543ZM9.125 3.5H11.875V2.5H9.125V3.5ZM11.875 3.5C12.8616 3.5 13.5504 3.5011 14.0703 3.57226C14.5748 3.64133 14.8451 3.76786 15.0392 3.96543L15.7526 3.26472C15.3426 2.84722 14.8247 2.66621 14.2059 2.5815C13.6025 2.4989 12.8329 2.5 11.875 2.5V3.5ZM15.0392 3.96543C15.2345 4.16426 15.3604 4.44315 15.4288 4.96118C15.499 5.4927 15.5 6.19616 15.5 7.2H16.5C16.5 6.22394 16.501 5.44248 16.4202 4.83027C16.3376 4.20459 16.1614 3.68097 15.7526 3.26472L15.0392 3.96543ZM15.5 7.2V12.8H16.5V7.2H15.5ZM15.5 12.8C15.5 13.8038 15.499 14.5073 15.4288 15.0388C15.3604 15.5568 15.2345 15.8357 15.0392 16.0346L15.7526 16.7353C16.1614 16.319 16.3376 15.7954 16.4202 15.1697C16.501 14.5575 16.5 13.7761 16.5 12.8H15.5ZM15.0392 16.0346C14.8451 16.2321 14.5748 16.3587 14.0703 16.4277C13.5504 16.4989 12.8616 16.5 11.875 16.5V17.5C12.8329 17.5 13.6025 17.5011 14.2059 17.4185C14.8247 17.3338 15.3426 17.1528 15.7526 16.7353L15.0392 16.0346ZM11.875 16.5H9.125V17.5H11.875V16.5ZM9.125 16.5C8.13834 16.5 7.44955 16.4989 6.92969 16.4277C6.42515 16.3587 6.15486 16.2321 5.96082 16.0346L5.24736 16.7353C5.65741 17.1528 6.17531 17.3338 6.79406 17.4185C7.3975 17.5011 8.16711 17.5 9.125 17.5V16.5ZM5.96082 16.0346C5.76554 15.8357 5.63961 15.5568 5.57121 15.0388C5.50103 14.5073 5.5 13.8038 5.5 12.8H4.5C4.5 13.7761 4.49898 14.5575 4.57981 15.1697C4.66243 15.7954 4.83855 16.319 5.24736 16.7353L5.96082 16.0346ZM5.5 12.8V7.2H4.5V12.8H5.5ZM16 12.5H7.69695V13.5H16V12.5ZM7.69695 12.5C7.08962 12.5 6.67514 12.4946 6.32204 12.6021L6.61353 13.5587C6.78836 13.5054 7.01735 13.5 7.69695 13.5V12.5ZM6.32201 12.6022C5.41254 12.8793 4.74028 13.672 4.51332 14.6353L5.48668 14.8647C5.6436 14.1985 6.09036 13.7182 6.61356 13.5587L6.32201 12.6022ZM8 7.5H13V6.5H8V7.5ZM8 10H11V9H8V10Z" fill="#21232A"/>
</svg>
