<svg width="20" height="20" viewBox="0 0 20 20" fill="none" xmlns="http://www.w3.org/2000/svg">
<path d="M6.49902 5.79883C6.49902 6.18553 6.18553 6.49902 5.79883 6.49902C5.41212 6.49902 5.09863 6.18553 5.09863 5.79883C5.09863 5.41212 5.41212 5.09863 5.79883 5.09863C6.18553 5.09863 6.49902 5.41212 6.49902 5.79883Z" fill="currentColor"/>
<path d="M8.59961 5.79883C8.59961 6.18553 8.28612 6.49902 7.89941 6.49902C7.51271 6.49902 7.19922 6.18553 7.19922 5.79883C7.19922 5.41212 7.51271 5.09863 7.89941 5.09863C8.28612 5.09863 8.59961 5.41212 8.59961 5.79883Z" fill="currentColor"/>
<path d="M10.7002 5.79883C10.7002 6.18553 10.3867 6.49902 10 6.49902C9.61328 6.49902 9.2998 6.18553 9.2998 5.79883C9.2998 5.41212 9.61328 5.09863 10 5.09863C10.3867 5.09863 10.7002 5.41212 10.7002 5.79883Z" fill="currentColor"/>
<path d="M2.99805 8.24951H17.002M8 17V8.24951M2.99805 10C2.99805 6.69924 2.99805 5.04887 4.02346 4.02346C5.04887 2.99805 6.69924 2.99805 10 2.99805C13.3007 2.99805 14.9512 2.99805 15.9765 4.02346C17.002 5.04887 17.002 6.69924 17.002 10C17.002 13.3007 17.002 14.9512 15.9765 15.9765C14.9512 17.002 13.3007 17.002 10 17.002C6.69924 17.002 5.04887 17.002 4.02346 15.9765C2.99805 14.9512 2.99805 13.3007 2.99805 10Z" stroke="currentColor" stroke-linecap="round"/>
</svg>
