<svg width="21" height="21" viewBox="0 0 21 21" fill="none" xmlns="http://www.w3.org/2000/svg">
    <path d="M16.5848 7.95495C16.4922 8.02695 14.857 8.95024 14.857 11.0033C14.857 13.3779 16.9377 14.218 17 14.2388C16.9904 14.29 16.6695 15.3893 15.903 16.5094C15.2195 17.4951 14.5057 18.4792 13.4199 18.4792C12.334 18.4792 12.0545 17.8471 10.801 17.8471C9.57941 17.8471 9.14507 18.5 8.15182 18.5C7.15858 18.5 6.46554 17.5879 5.66871 16.4678C4.74573 15.1525 4 13.1091 4 11.1697C4 8.05896 6.01843 6.40919 8.00491 6.40919C9.06044 6.40919 9.9403 7.10366 10.603 7.10366C11.2338 7.10366 12.2174 6.36759 13.4183 6.36759C13.8734 6.36759 15.5085 6.40919 16.5848 7.95495ZM12.8482 5.05065C13.3448 4.4602 13.6961 3.64091 13.6961 2.82163C13.6961 2.70802 13.6865 2.59281 13.6658 2.5C12.8578 2.5304 11.8965 3.03925 11.3168 3.71292C10.8617 4.23137 10.4369 5.05065 10.4369 5.88114C10.4369 6.00595 10.4577 6.13076 10.4673 6.17077C10.5184 6.18037 10.6014 6.19157 10.6844 6.19157C11.4094 6.19157 12.3212 5.70512 12.8482 5.05065Z"
          fill="currentColor"/>
</svg>
