<svg width="21" height="21" viewBox="0 0 21 21" fill="none" xmlns="http://www.w3.org/2000/svg">
    <path d="M12.7524 4.43555C12.596 4.71315 12.4556 5.00033 12.328 5.29389C11.1154 5.11201 9.88058 5.11201 8.66486 5.29389C8.54042 5.00033 8.39682 4.71315 8.24048 4.43555C7.10134 4.6302 5.99091 4.97161 4.93793 5.45343C2.8511 8.54539 2.28631 11.5576 2.56711 14.5283C3.78921 15.4313 5.1581 16.1205 6.61632 16.5608C6.94498 16.1205 7.23535 15.6514 7.48424 15.1632C7.01199 14.9877 6.55569 14.7676 6.11855 14.5123C6.23342 14.4293 6.3451 14.3432 6.45358 14.2602C9.01585 15.4664 11.9834 15.4664 14.5488 14.2602C14.6573 14.3496 14.769 14.4357 14.8839 14.5123C14.4467 14.7708 13.9904 14.9877 13.515 15.1664C13.7639 15.6546 14.0542 16.1237 14.3829 16.564C15.8411 16.1237 17.21 15.4377 18.4322 14.5346C18.7639 11.0885 17.8641 8.10185 16.0549 5.45663C15.0051 4.97481 13.8947 4.63338 12.7555 4.44193L12.7524 4.43555ZM7.84161 12.6999C7.05348 12.6999 6.39935 11.9851 6.39935 11.1013C6.39935 10.2174 7.02795 9.49946 7.83843 9.49946C8.64892 9.49946 9.29346 10.2206 9.2807 11.1013C9.26794 11.982 8.64572 12.6999 7.84161 12.6999ZM13.1576 12.6999C12.3663 12.6999 11.7185 11.9851 11.7185 11.1013C11.7185 10.2174 12.3471 9.49946 13.1576 9.49946C13.9681 9.49946 14.6095 10.2206 14.5967 11.1013C14.5839 11.982 13.9617 12.6999 13.1576 12.6999Z"
          fill="#5865F2"/>
</svg>
