<svg width="20" height="21" viewBox="0 0 20 21" fill="none" xmlns="http://www.w3.org/2000/svg">
    <path d="M7.35161 15.1919C7.35161 15.2555 7.27742 15.3064 7.18387 15.3064C7.07742 15.3159 7.00323 15.265 7.00323 15.1919C7.00323 15.1283 7.07742 15.0775 7.17097 15.0775C7.26774 15.0679 7.35161 15.1188 7.35161 15.1919ZM6.34839 15.0489C6.32581 15.1124 6.39032 15.1856 6.4871 15.2046C6.57097 15.2364 6.66774 15.2046 6.6871 15.1411C6.70645 15.0775 6.64516 15.0044 6.54839 14.9758C6.46452 14.9535 6.37097 14.9853 6.34839 15.0489ZM7.77419 14.9948C7.68065 15.0171 7.61613 15.0775 7.62581 15.1506C7.63548 15.2142 7.71936 15.2555 7.81613 15.2332C7.90968 15.211 7.97419 15.1506 7.96452 15.087C7.95484 15.0266 7.86774 14.9853 7.77419 14.9948ZM9.89677 2.81396C5.42258 2.81396 2 6.16116 2 10.5701C2 14.0953 4.25161 17.1119 7.46774 18.1736C7.88065 18.2467 8.02581 17.9956 8.02581 17.7889C8.02581 17.5919 8.01613 16.5047 8.01613 15.8372C8.01613 15.8372 5.75806 16.314 5.28387 14.8899C5.28387 14.8899 4.91613 13.9649 4.3871 13.7265C4.3871 13.7265 3.64839 13.2275 4.43871 13.237C4.43871 13.237 5.24194 13.3006 5.68387 14.0571C6.39032 15.2841 7.57419 14.9313 8.03548 14.7215C8.10968 14.2129 8.31936 13.86 8.55161 13.6502C6.74839 13.4532 4.92903 13.1957 4.92903 10.1377C4.92903 9.2636 5.17419 8.82493 5.69032 8.26548C5.60645 8.05886 5.33226 7.20696 5.77419 6.10712C6.44839 5.90051 8 6.96538 8 6.96538C8.64516 6.78737 9.33871 6.69519 10.0258 6.69519C10.7129 6.69519 11.4065 6.78737 12.0516 6.96538C12.0516 6.96538 13.6032 5.89733 14.2774 6.10712C14.7194 7.21014 14.4452 8.05886 14.3613 8.26548C14.8774 8.82811 15.1935 9.26678 15.1935 10.1377C15.1935 13.2052 13.2935 13.45 11.4903 13.6502C11.7871 13.9014 12.0387 14.3782 12.0387 15.1252C12.0387 16.1964 12.029 17.5219 12.029 17.7826C12.029 17.9892 12.1774 18.2403 12.5871 18.1672C15.8129 17.1119 18 14.0953 18 10.5701C18 6.16116 14.371 2.81396 9.89677 2.81396ZM5.13548 13.7774C5.09355 13.8092 5.10323 13.8823 5.15806 13.9427C5.20968 13.9935 5.28387 14.0158 5.32581 13.9745C5.36774 13.9427 5.35806 13.8696 5.30323 13.8092C5.25161 13.7583 5.17742 13.7361 5.13548 13.7774ZM4.7871 13.5199C4.76452 13.5612 4.79677 13.6121 4.86129 13.6439C4.9129 13.6757 4.97742 13.6661 5 13.6216C5.02258 13.5803 4.99032 13.5294 4.92581 13.4977C4.86129 13.4786 4.80968 13.4881 4.7871 13.5199ZM5.83226 14.6515C5.78065 14.6929 5.8 14.7882 5.87419 14.8486C5.94839 14.9217 6.04194 14.9313 6.08387 14.8804C6.12581 14.8391 6.10645 14.7437 6.04194 14.6833C5.97097 14.6102 5.87419 14.6007 5.83226 14.6515ZM5.46452 14.1843C5.4129 14.216 5.4129 14.2987 5.46452 14.3718C5.51613 14.4449 5.60323 14.4767 5.64516 14.4449C5.69677 14.4036 5.69677 14.3209 5.64516 14.2478C5.6 14.1747 5.51613 14.1429 5.46452 14.1843Z"
          fill="currentColor"/>
</svg>
