<svg xmlns="http://www.w3.org/2000/svg" width="20" height="21" viewBox="0 0 20 21" fill="none">
    <path d="M5.35037 10.5C5.35037 9.98044 5.43901 9.48202 5.59583 9.01496L2.84257 6.95581C2.2894 8.05526 2.00214 9.26924 2.00391 10.5C2.00391 11.7737 2.30529 12.9751 2.84121 14.0415L5.59311 11.9789C5.43265 11.5023 5.35067 11.0029 5.35037 10.5Z"
          fill="#FBBC05"/>
    <path d="M10.186 5.77282C11.3383 5.77282 12.3794 6.17238 13.1976 6.82694L15.5779 4.49983C14.1277 3.26366 12.2683 2.5 10.186 2.5C6.95268 2.5 4.17352 4.31028 2.84257 6.95581L5.59719 9.01496C6.2313 7.12899 8.03953 5.77282 10.186 5.77282Z"
          fill="#EA4335"/>
    <path d="M10.186 15.2272C8.03885 15.2272 6.23062 13.871 5.59583 11.985L2.84257 14.0442C4.17283 16.6897 6.952 18.5 10.186 18.5C12.181 18.5 14.0861 17.8066 15.5166 16.5063L12.9024 14.5276C12.1653 14.9824 11.2373 15.2272 10.186 15.2272Z"
          fill="#34A853"/>
    <path d="M17.9957 10.5C17.9957 10.0275 17.9207 9.51815 17.8096 9.04564H10.1853V12.1364H14.5736C14.3547 13.1905 13.7567 14.0006 12.9024 14.5276L15.5166 16.5063C17.0186 15.1413 17.9957 13.108 17.9957 10.5Z"
          fill="#4285F4"/>
</svg>