<svg width="16" height="17" viewBox="0 0 16 17" fill="none" xmlns="http://www.w3.org/2000/svg">
    <path d="M10.3333 5.21932C10.3333 3.37832 8.83996 1.88599 6.99996 1.88599C5.15996 1.88599 3.66663 3.37832 3.66663 5.21932C3.66663 7.06032 5.15996 8.55265 6.99996 8.55265C8.83996 8.55265 10.3333 7.06032 10.3333 5.21932ZM6.99996 7.21932C5.89663 7.21932 4.99997 6.32399 4.99997 5.21932C4.99997 4.11465 5.89663 3.21932 6.99996 3.21932C8.1033 3.21932 8.99996 4.11465 8.99996 5.21932C8.99996 6.32399 8.1033 7.21932 6.99996 7.21932Z"
          fill="currentColor"/>
    <path d="M1.99996 13.5527C1.99996 13.3223 2.02996 13.099 2.08329 12.886C2.37996 11.736 3.42329 10.886 4.66663 10.886H8.65279V9.55265H4.66663C2.45663 9.55265 0.666626 11.3437 0.666626 13.5527V14.2193C0.666626 14.9527 1.26663 15.5527 1.99996 15.5527H8.63615V14.2193H1.99996V13.5527Z"
          fill="currentColor"/>
    <path d="M12.3333 15.5527C11.9651 15.5527 11.6666 15.2542 11.6666 14.886V13.5527H10.3333C9.9651 13.5527 9.66663 13.2542 9.66663 12.886C9.66663 12.5178 9.9651 12.2193 10.3333 12.2193H11.6666V10.886C11.6666 10.5178 11.9651 10.2193 12.3333 10.2193C12.7015 10.2193 13 10.5178 13 10.886V12.2193H14.3333C14.7015 12.2193 15 12.5178 15 12.886C15 13.2542 14.7015 13.5527 14.3333 13.5527H13V14.886C13 15.2542 12.7015 15.5527 12.3333 15.5527Z"
          fill="currentColor"/>
</svg>
