<svg xmlns="http://www.w3.org/2000/svg" width="20" height="20" viewBox="0 0 20 20" fill="none">
    <path d="M15.6004 12.3998V9.9498C15.6004 8.21011 14.1901 6.7998 12.4504 6.7998H7.55039C5.81069 6.7998 4.40039 8.21011 4.40039 9.9498V12.3998C4.40039 15.4926 6.9076 17.9998 10.0004 17.9998C13.0932 17.9998 15.6004 15.4926 15.6004 12.3998Z"
          stroke="currentColor" stroke-width="1.25"/>
    <path d="M13.6004 7.1998V6.3998C13.6004 4.41158 11.9886 2.7998 10.0004 2.7998C8.01217 2.7998 6.40039 4.41158 6.40039 6.3998V7.1998"
          stroke="currentColor" stroke-width="1.25"/>
    <path d="M15.5996 11.5996H17.9996" stroke="currentColor" stroke-width="1.25" stroke-linecap="round"/>
    <path d="M4.4 11.5996H2" stroke="currentColor" stroke-width="1.25" stroke-linecap="round"/>
    <path d="M12 3.2L14 2" stroke="currentColor" stroke-width="1.25" stroke-linecap="round"/>
    <path d="M8 3.2L6 2" stroke="currentColor" stroke-width="1.25" stroke-linecap="round"/>
    <path d="M16.8002 16.3998L15.2002 15.7598" stroke="currentColor" stroke-width="1.25" stroke-linecap="round"/>
    <path d="M16.8002 6.7998L15.2002 7.4398" stroke="currentColor" stroke-width="1.25" stroke-linecap="round"/>
    <path d="M3.2002 16.3998L4.8002 15.7598" stroke="currentColor" stroke-width="1.25" stroke-linecap="round"/>
    <path d="M3.2002 6.7998L4.8002 7.4398" stroke="currentColor" stroke-width="1.25" stroke-linecap="round"/>
    <path d="M10 18V13" stroke="currentColor" stroke-width="1.25" stroke-linecap="round"/>
</svg>