<svg width="20" height="20" viewBox="0 0 20 20" fill="none" xmlns="http://www.w3.org/2000/svg">
    <g clip-path="url(#clip0_1869_10430)">
        <path d="M9.96301 15C9.73181 15 9.51008 14.9091 9.3466 14.7474C9.18312 14.5857 9.09128 14.3664 9.09128 14.1376C9.09128 13.9089 9.18312 13.6896 9.3466 13.5279C9.51008 13.3661 9.73181 13.2753 9.96301 13.2753C10.1942 13.2753 10.4159 13.3661 10.5794 13.5279C10.7429 13.6896 10.8348 13.9089 10.8348 14.1376C10.8348 14.3664 10.7429 14.5857 10.5794 14.7474C10.4159 14.9091 10.1942 15 9.96301 15ZM7.60638 8.20734C7.52021 8.20673 7.43515 8.18809 7.35679 8.15265C7.27842 8.1172 7.20852 8.06575 7.15169 8.00168C7.09485 7.93761 7.05237 7.86236 7.02702 7.78089C7.00167 7.69942 6.99404 7.61357 7.00462 7.52897C7.04422 7.19364 7.10722 6.91944 7.19361 6.70637C7.34006 6.35323 7.56791 6.03882 7.85896 5.78822C8.15447 5.52401 8.50073 5.32136 8.87709 5.19234C9.25858 5.06297 9.65933 4.99797 10.0626 5.00005C10.9025 5.00005 11.6015 5.24457 12.1607 5.73421C12.7198 6.22207 13 6.87374 13 7.68684C13 8.05244 12.928 8.38362 12.784 8.68037C12.6412 8.97771 12.3364 9.34806 11.8703 9.79081C11.4029 10.2342 11.0945 10.5493 10.9415 10.7369C10.783 10.9361 10.6656 11.1641 10.596 11.4081C10.554 11.5452 10.524 11.7072 10.5078 11.8936C10.479 12.2082 10.2234 12.4574 9.90422 12.4574C9.81932 12.4569 9.73545 12.4389 9.65799 12.4045C9.58052 12.3702 9.51114 12.3202 9.45429 12.2578C9.39744 12.1954 9.35436 12.122 9.32781 12.0422C9.30125 11.9625 9.2918 11.8781 9.30006 11.7945C9.32106 11.5784 9.35286 11.3903 9.39725 11.2301C9.47945 10.9244 9.60424 10.6573 9.77103 10.4288C9.93722 10.1997 10.2372 9.86382 10.671 9.42047C11.1053 8.97771 11.3849 8.65485 11.5109 8.45484C11.6345 8.25364 11.7647 7.92662 11.7647 7.52897C11.7647 7.13132 11.5529 6.80786 11.2679 6.50161C10.9811 6.19537 10.5654 6.04165 10.02 6.04165C8.95569 6.04165 8.35213 6.58352 8.21054 7.66726C8.17034 7.97232 7.91956 8.20734 7.60878 8.20734H7.60638Z"
              fill="currentColor"/>
        <circle cx="10" cy="10" r="8.5" stroke="currentColor" stroke-width="1.25"/>
    </g>
    <defs>
        <clipPath id="clip0_1869_10430">
            <rect width="20" height="20" fill="white"/>
        </clipPath>
    </defs>
</svg>
