<svg xmlns="http://www.w3.org/2000/svg" width="20" height="20" viewBox="0 0 20 20" fill="none">
    <path d="M17.3747 10.0694C17.3374 14.1105 14.0499 17.375 10 17.375C5.9269 17.375 2.625 14.0731 2.625 10C2.625 5.95005 5.88947 2.66256 9.93062 2.62532C9.9383 2.66773 9.93722 2.72234 9.92269 2.77631C9.90799 2.83093 9.88441 2.86765 9.86373 2.88847C8.94421 3.81425 8.375 5.09126 8.375 6.5C8.375 9.33046 10.6695 11.625 13.5 11.625C14.9087 11.625 16.1858 11.0558 17.1115 10.1363C17.1324 10.1156 17.1691 10.092 17.2237 10.0773C17.2777 10.0628 17.3323 10.0617 17.3747 10.0694Z"
          stroke="currentColor" stroke-width="1.25" stroke-linejoin="round"/>
</svg>