<svg xmlns="http://www.w3.org/2000/svg" width="20" height="20" viewBox="0 0 20 20" fill="none">
    <path d="M4.66667 2C3.19391 2 2 3.16164 2 4.59459V12.3784C2 13.8113 3.19391 14.973 4.66667 14.973H6.33333C6.75301 14.973 7.14819 15.1652 7.4 15.4919L8.93333 17.4811C9.46667 18.173 10.5333 18.173 11.0667 17.4811L12.6 15.4919C12.8518 15.1652 13.247 14.973 13.6667 14.973H15.3333C16.8061 14.973 18 13.8113 18 12.3784V4.59459C18 3.16164 16.8061 2 15.3333 2H4.66667Z"
          stroke="currentColor" stroke-width="1.25"/>
    <rect x="9.25" y="11" width="1.5" height="1.5" rx="0.75" fill="currentColor"/>
    <path d="M9.25 5L9.37455 10H10.6255L10.75 5H9.25Z" fill="currentColor"/>
</svg>