<svg xmlns="http://www.w3.org/2000/svg" width="20" height="20" viewBox="0 0 20 20" fill="none">
    <path d="M7.72252 4.72671C8.73583 2.90891 9.24247 2 9.99999 2C10.7575 2 11.2642 2.9089 12.2774 4.7267L12.5396 5.19699C12.8276 5.71355 12.9715 5.97184 13.1961 6.14225C13.4205 6.31267 13.7001 6.37593 14.2593 6.50245L14.7684 6.61763C16.7361 7.06286 17.72 7.28546 17.9541 8.03819C18.1881 8.79089 17.5174 9.57529 16.1759 11.1439L15.8289 11.5498C15.4477 11.9955 15.257 12.2184 15.1713 12.4942C15.0856 12.7699 15.1144 13.0673 15.172 13.6621L15.2245 14.2035C15.4273 16.2965 15.5287 17.343 14.9159 17.8082C14.303 18.2734 13.3818 17.8492 11.5394 17.001L11.0628 16.7815C10.5393 16.5404 10.2775 16.4199 9.99999 16.4199C9.72247 16.4199 9.46071 16.5404 8.93719 16.7815L8.46055 17.001C6.61814 17.8492 5.69694 18.2734 5.08412 17.8082C4.47129 17.343 4.5727 16.2965 4.77552 14.2035L4.82798 13.6621C4.88562 13.0673 4.91444 12.7699 4.82869 12.4942C4.74294 12.2184 4.55234 11.9955 4.17113 11.5498L3.82408 11.1439C2.4826 9.57529 1.81186 8.79089 2.04594 8.03819C2.28002 7.28546 3.26389 7.06286 5.23163 6.61763L5.74071 6.50245C6.29988 6.37593 6.57946 6.31267 6.80395 6.14225C7.02844 5.97184 7.17242 5.71356 7.46037 5.19699L7.72252 4.72671Z"
          stroke="currentColor" stroke-width="1.25"/>
</svg>
