<svg width="20" height="20" viewBox="0 0 20 20" fill="none" xmlns="http://www.w3.org/2000/svg">
    <path d="M10.1875 2.1875V3.7875M10.1875 16.5875V18.1875M3.7875 10.1875H2.1875M18.1879 10.1875H16.5879M16.4104 3.9655L14.6328 5.59076M3.96582 3.9655L5.74343 5.59076M5.7436 14.6325L3.96582 16.4103M16.4104 16.4093L14.6328 14.6315M6.1875 10.1875C6.1875 10.7128 6.29096 11.2329 6.49198 11.7182C6.693 12.2035 6.98764 12.6445 7.35907 13.0159C7.73051 13.3874 8.17146 13.682 8.65677 13.883C9.14207 14.084 9.66221 14.1875 10.1875 14.1875C10.7128 14.1875 11.2329 14.084 11.7182 13.883C12.2035 13.682 12.6445 13.3874 13.0159 13.0159C13.3874 12.6445 13.682 12.2035 13.883 11.7182C14.084 11.2329 14.1875 10.7128 14.1875 10.1875C14.1875 9.66221 14.084 9.14207 13.883 8.65677C13.682 8.17146 13.3874 7.73051 13.0159 7.35907C12.6445 6.98764 12.2035 6.693 11.7182 6.49198C11.2329 6.29096 10.7128 6.1875 10.1875 6.1875C9.66221 6.1875 9.14207 6.29096 8.65677 6.49198C8.17146 6.693 7.73051 6.98764 7.35907 7.35907C6.98764 7.73051 6.693 8.17146 6.49198 8.65677C6.29096 9.14207 6.1875 9.66221 6.1875 10.1875Z"
          stroke="currentColor" stroke-width="1.25" stroke-linecap="round"/>
</svg>
