<svg width="20" height="20" viewBox="0 0 20 20" fill="none" xmlns="http://www.w3.org/2000/svg">
<path d="M10 18C8.89333 18 7.85333 17.79 6.88 17.37C5.90667 16.95 5.06 16.38 4.34 15.66C3.62 14.94 3.05 14.0933 2.63 13.12C2.21 12.1467 2 11.1067 2 10C2 8.89333 2.21 7.85333 2.63 6.88C3.05 5.90667 3.62 5.06 4.34 4.34C5.06 3.62 5.90667 3.05 6.88 2.63C7.85333 2.21 8.89333 2 10 2C11.1067 2 12.1467 2.21 13.12 2.63C14.0933 3.05 14.94 3.62 15.66 4.34C16.38 5.06 16.95 5.90667 17.37 6.88C17.79 7.85333 18 8.89333 18 10C18 11.1067 17.79 12.1467 17.37 13.12C16.95 14.0933 16.38 14.94 15.66 15.66C14.94 16.38 14.0933 16.95 13.12 17.37C12.1467 17.79 11.1067 18 10 18Z" fill="currentColor"/>
<path d="M7.2823 9.41967L8.92823 11.1115L12.7177 7.21639C12.8581 7.07213 13.0367 7 13.2536 7C13.4705 7 13.6491 7.07213 13.7895 7.21639C13.9298 7.36066 14 7.54426 14 7.76721C14 7.99016 13.9298 8.17377 13.7895 8.31803L9.46412 12.7639C9.31101 12.9213 9.13238 13 8.92823 13C8.72408 13 8.54545 12.9213 8.39234 12.7639L6.21053 10.5213C6.07018 10.377 6 10.1934 6 9.97049C6 9.74754 6.07018 9.56393 6.21053 9.41967C6.35088 9.27541 6.52951 9.20328 6.74641 9.20328C6.96332 9.20328 7.14195 9.27541 7.2823 9.41967Z" fill="white"/>
</svg>
