<svg width="16" height="17" viewBox="0 0 16 17" fill="none" xmlns="http://www.w3.org/2000/svg">
    <path d="M6.42673 4.61227C6.70347 3.91057 7.69656 3.91057 7.9733 4.61228L8.83089 6.78678C8.91537 7.00102 9.08497 7.1706 9.29921 7.25509L11.4738 8.1127C12.1754 8.38945 12.1754 9.38253 11.4738 9.65928L9.29921 10.5169C9.08497 10.6013 8.91537 10.7709 8.83089 10.9852L7.9733 13.1597C7.69655 13.8614 6.70347 13.8614 6.42673 13.1597L5.56911 10.9852C5.48462 10.7709 5.31504 10.6013 5.10081 10.5169L2.92629 9.65928C2.2246 9.38252 2.2246 8.38945 2.9263 8.1127L5.10081 7.25509C5.31504 7.17059 5.48463 7.00102 5.56911 6.78678L6.42673 4.61227Z"
          stroke="currentColor"/>
    <mask id="path-2-inside-1_2480_20768" fill="white">
        <path fill-rule="evenodd" clip-rule="evenodd"
              d="M12.2231 1.4343C12.1412 1.23662 11.8612 1.23657 11.7792 1.43422L11.673 1.69025C11.5103 2.08239 11.1986 2.39393 10.8064 2.55639L10.5483 2.66326C10.3505 2.74518 10.3506 3.02533 10.5484 3.10718L10.804 3.21292C11.197 3.37554 11.5092 3.68778 11.6717 4.0808L11.7779 4.33757C11.8598 4.53545 12.1401 4.5355 12.222 4.33765L12.3274 4.08288C12.49 3.69019 12.802 3.3782 13.1947 3.21563L13.4527 3.10884C13.6505 3.02697 13.6505 2.74689 13.4528 2.66495L13.1966 2.55878C12.8042 2.39621 12.4925 2.08452 12.33 1.69224L12.2231 1.4343ZM12.2231 13.4343C12.1412 13.2366 11.8612 13.2366 11.7792 13.4342L11.673 13.6903C11.5103 14.0824 11.1986 14.3939 10.8064 14.5564L10.5483 14.6633C10.3505 14.7452 10.3506 15.0253 10.5484 15.1072L10.804 15.2129C11.197 15.3755 11.5092 15.6878 11.6717 16.0808L11.7779 16.3376C11.8598 16.5355 12.1401 16.5355 12.222 16.3377L12.3274 16.0829C12.49 15.6902 12.802 15.3782 13.1947 15.2156L13.4527 15.1088C13.6505 15.027 13.6505 14.7469 13.4528 14.6649L13.1966 14.5588C12.8042 14.3962 12.4925 14.0845 12.33 13.6922L12.2231 13.4343Z"/>
    </mask>
    <path fill-rule="evenodd" clip-rule="evenodd"
          d="M12.2231 1.4343C12.1412 1.23662 11.8612 1.23657 11.7792 1.43422L11.673 1.69025C11.5103 2.08239 11.1986 2.39393 10.8064 2.55639L10.5483 2.66326C10.3505 2.74518 10.3506 3.02533 10.5484 3.10718L10.804 3.21292C11.197 3.37554 11.5092 3.68778 11.6717 4.0808L11.7779 4.33757C11.8598 4.53545 12.1401 4.5355 12.222 4.33765L12.3274 4.08288C12.49 3.69019 12.802 3.3782 13.1947 3.21563L13.4527 3.10884C13.6505 3.02697 13.6505 2.74689 13.4528 2.66495L13.1966 2.55878C12.8042 2.39621 12.4925 2.08452 12.33 1.69224L12.2231 1.4343ZM12.2231 13.4343C12.1412 13.2366 11.8612 13.2366 11.7792 13.4342L11.673 13.6903C11.5103 14.0824 11.1986 14.3939 10.8064 14.5564L10.5483 14.6633C10.3505 14.7452 10.3506 15.0253 10.5484 15.1072L10.804 15.2129C11.197 15.3755 11.5092 15.6878 11.6717 16.0808L11.7779 16.3376C11.8598 16.5355 12.1401 16.5355 12.222 16.3377L12.3274 16.0829C12.49 15.6902 12.802 15.3782 13.1947 15.2156L13.4527 15.1088C13.6505 15.027 13.6505 14.7469 13.4528 14.6649L13.1966 14.5588C12.8042 14.3962 12.4925 14.0845 12.33 13.6922L12.2231 13.4343Z"
          fill="currentColor"/>
    <path d="M11.7792 1.43422L12.7029 1.81733L12.7029 1.81733L11.7792 1.43422ZM12.2231 1.4343L13.1469 1.0515L13.1469 1.0515L12.2231 1.4343ZM11.673 1.69025L12.5967 2.07337L12.5967 2.07337L11.673 1.69025ZM10.8064 2.55639L10.4237 1.6325L10.4237 1.6325L10.8064 2.55639ZM10.5483 2.66326L10.1657 1.73936L10.1657 1.73936L10.5483 2.66326ZM10.5484 3.10718L10.1661 4.03121L10.1661 4.03121L10.5484 3.10718ZM10.804 3.21292L11.1863 2.2889L11.1863 2.2889L10.804 3.21292ZM11.6717 4.0808L12.5958 3.69863L12.5958 3.69863L11.6717 4.0808ZM11.7779 4.33757L10.8538 4.71974L10.8538 4.71974L11.7779 4.33757ZM12.222 4.33765L13.1459 4.72013L13.1459 4.72013L12.222 4.33765ZM12.3274 4.08288L11.4035 3.7004L11.4035 3.7004L12.3274 4.08288ZM13.1947 3.21563L12.8122 2.29167L12.8122 2.29167L13.1947 3.21563ZM13.4527 3.10884L13.8352 4.0328L13.8352 4.0328L13.4527 3.10884ZM13.4528 2.66495L13.07 3.58878L13.07 3.58878L13.4528 2.66495ZM13.1966 2.55878L12.8137 3.48261L12.8137 3.48261L13.1966 2.55878ZM12.33 1.69224L11.4061 2.07503L11.4061 2.07503L12.33 1.69224ZM11.7792 13.4342L12.7029 13.8173L12.7029 13.8173L11.7792 13.4342ZM12.2231 13.4343L13.1469 13.0515L13.1469 13.0515L12.2231 13.4343ZM11.673 13.6903L10.7493 13.3071L10.7493 13.3071L11.673 13.6903ZM10.8064 14.5564L10.4237 13.6325L10.4237 13.6325L10.8064 14.5564ZM10.5483 14.6633L10.931 15.5872H10.931L10.5483 14.6633ZM10.5484 15.1072L10.1661 16.0312L10.1661 16.0312L10.5484 15.1072ZM10.804 15.2129L11.1863 14.2889L11.1863 14.2889L10.804 15.2129ZM11.6717 16.0808L12.5958 15.6986L12.5958 15.6986L11.6717 16.0808ZM11.7779 16.3376L10.8538 16.7197L10.8538 16.7197L11.7779 16.3376ZM12.222 16.3377L13.1459 16.7201L13.1459 16.7201L12.222 16.3377ZM12.3274 16.0829L11.4035 15.7004L11.4035 15.7004L12.3274 16.0829ZM13.1947 15.2156L12.8122 14.2917L12.8122 14.2917L13.1947 15.2156ZM13.4527 15.1088L13.8352 16.0328L13.8352 16.0328L13.4527 15.1088ZM13.4528 14.6649L13.07 15.5888L13.07 15.5888L13.4528 14.6649ZM13.1966 14.5588L13.5794 13.635L13.5794 13.635L13.1966 14.5588ZM12.33 13.6922L11.4061 14.075L11.4061 14.075L12.33 13.6922ZM12.7029 1.81733C12.4437 2.44235 11.5583 2.4422 11.2993 1.81709L13.1469 1.0515C12.7241 0.0310392 11.2787 0.030787 10.8555 1.05111L12.7029 1.81733ZM12.5967 2.07337L12.7029 1.81733L10.8555 1.05111L10.7493 1.30714L12.5967 2.07337ZM11.189 3.48029C11.8262 3.21641 12.3325 2.71038 12.5967 2.07337L10.7493 1.30714C10.6882 1.45441 10.5711 1.57145 10.4237 1.6325L11.189 3.48029ZM10.931 3.58715L11.189 3.48029L10.4237 1.6325L10.1657 1.73936L10.931 3.58715ZM10.9307 2.18316C11.5563 2.442 11.5565 3.3281 10.931 3.58715L10.1657 1.73936C9.14461 2.16226 9.14486 3.60866 10.1661 4.03121L10.9307 2.18316ZM11.1863 2.2889L10.9307 2.18316L10.1661 4.03121L10.4217 4.13695L11.1863 2.2889ZM12.5958 3.69863C12.3318 3.0602 11.8247 2.55303 11.1863 2.2889L10.4217 4.13695C10.5693 4.19806 10.6866 4.31537 10.7476 4.46296L12.5958 3.69863ZM12.702 3.95541L12.5958 3.69863L10.7476 4.46296L10.8538 4.71974L12.702 3.95541ZM11.298 3.95517C11.557 3.32951 12.4432 3.32966 12.702 3.95541L10.8538 4.71974C11.2763 5.74124 12.7231 5.7415 13.1459 4.72013L11.298 3.95517ZM11.4035 3.7004L11.298 3.95517L13.1459 4.72013L13.2514 4.46536L11.4035 3.7004ZM12.8122 2.29167C12.1743 2.55573 11.6675 3.06249 11.4035 3.7004L13.2514 4.46536C13.3124 4.31789 13.4296 4.20068 13.5772 4.13959L12.8122 2.29167ZM13.0702 2.18488L12.8122 2.29167L13.5772 4.13959L13.8352 4.0328L13.0702 2.18488ZM13.07 3.58878C12.4446 3.32966 12.4448 2.44378 13.0702 2.18488L13.8352 4.0328C14.8561 3.61015 14.8564 2.16412 13.8356 1.74112L13.07 3.58878ZM12.8137 3.48261L13.07 3.58878L13.8356 1.74112L13.5794 1.63495L12.8137 3.48261ZM11.4061 2.07503C11.6702 2.71228 12.1765 3.21856 12.8137 3.48261L13.5794 1.63495C13.4319 1.57387 13.3149 1.45676 13.2538 1.30944L11.4061 2.07503ZM11.2993 1.81709L11.4061 2.07503L13.2538 1.30945L13.1469 1.0515L11.2993 1.81709ZM12.7029 13.8173C12.4437 14.4424 11.5583 14.4422 11.2993 13.8171L13.1469 13.0515C12.7241 12.031 11.2787 12.0308 10.8555 13.0511L12.7029 13.8173ZM12.5967 14.0734L12.7029 13.8173L10.8555 13.0511L10.7493 13.3071L12.5967 14.0734ZM11.189 15.4803C11.8262 15.2164 12.3325 14.7104 12.5967 14.0734L10.7493 13.3071C10.6882 13.4544 10.5711 13.5714 10.4237 13.6325L11.189 15.4803ZM10.931 15.5872L11.189 15.4803L10.4237 13.6325L10.1657 13.7394L10.931 15.5872ZM10.9307 14.1832C11.5563 14.442 11.5565 15.3281 10.931 15.5872L10.1657 13.7394C9.14461 14.1623 9.14486 15.6087 10.1661 16.0312L10.9307 14.1832ZM11.1863 14.2889L10.9307 14.1832L10.1661 16.0312L10.4217 16.137L11.1863 14.2889ZM12.5958 15.6986C12.3318 15.0602 11.8247 14.553 11.1863 14.2889L10.4217 16.137C10.5693 16.1981 10.6866 16.3154 10.7476 16.463L12.5958 15.6986ZM12.702 15.9554L12.5958 15.6986L10.7476 16.463L10.8538 16.7197L12.702 15.9554ZM11.298 15.9552C11.557 15.3295 12.4432 15.3297 12.702 15.9554L10.8538 16.7197C11.2763 17.7412 12.7231 17.7415 13.1459 16.7201L11.298 15.9552ZM11.4035 15.7004L11.298 15.9552L13.1459 16.7201L13.2514 16.4654L11.4035 15.7004ZM12.8122 14.2917C12.1743 14.5557 11.6675 15.0625 11.4035 15.7004L13.2514 16.4654C13.3124 16.3179 13.4296 16.2007 13.5772 16.1396L12.8122 14.2917ZM13.0702 14.1849L12.8122 14.2917L13.5772 16.1396L13.8352 16.0328L13.0702 14.1849ZM13.07 15.5888C12.4446 15.3297 12.4448 14.4438 13.0702 14.1849L13.8352 16.0328C14.8561 15.6102 14.8564 14.1641 13.8356 13.7411L13.07 15.5888ZM12.8137 15.4826L13.07 15.5888L13.8356 13.7411L13.5794 13.635L12.8137 15.4826ZM11.4061 14.075C11.6702 14.7123 12.1765 15.2186 12.8137 15.4826L13.5794 13.635C13.4319 13.5739 13.3149 13.4568 13.2538 13.3094L11.4061 14.075ZM11.2993 13.8171L11.4061 14.075L13.2538 13.3094L13.1469 13.0515L11.2993 13.8171Z"
          fill="currentColor" mask="url(#path-2-inside-1_2480_20768)"/>
</svg>
